<?xml version="1.0" encoding="UTF-8"?>
<svg id="Ebene_1" data-name="Ebene 1" xmlns="http://www.w3.org/2000/svg" xmlns:xlink="http://www.w3.org/1999/xlink" viewBox="0 0 549 603">
  <defs>
    <style>
      .cls-1, .cls-2, .cls-3, .cls-4, .cls-5 {
        fill: none;
      }

      .cls-1, .cls-3, .cls-4, .cls-5 {
        stroke: #8c1515;
      }

      .cls-1, .cls-4 {
        stroke-linecap: round;
        stroke-linejoin: round;
      }

      .cls-6 {
        clip-path: url(#clippath);
      }

      .cls-2, .cls-7 {
        stroke-width: 0px;
      }

      .cls-8 {
        clip-path: url(#clippath-1);
      }

      .cls-9 {
        clip-path: url(#clippath-2);
      }

      .cls-3 {
        stroke-miterlimit: 10;
      }

      .cls-4 {
        stroke-width: .8px;
      }

      .cls-7 {
        fill: #8c1515;
      }
    </style>
    <clipPath id="clippath">
      <rect class="cls-2" x="327" y="228" width="177" height="124"/>
    </clipPath>
    <clipPath id="clippath-1">
      <rect class="cls-2" y="58" width="230" height="545"/>
    </clipPath>
    <clipPath id="clippath-2">
      <rect class="cls-2" x="283" y="350.03" width="266" height="254"/>
    </clipPath>
  </defs>
  <g class="cls-6">
    <g>
      <path class="cls-4" d="m426.67,351.56h52.51c-.52-1.68-3.27-2.75-8.26-3.22l-44.23-4.17"/>
      <path class="cls-4" d="m404.33,351.56h-52.5c.52-1.68,3.27-2.75,8.27-3.22l44.23-4.17"/>
      <path class="cls-4" d="m408.64,327.61c1.29,3.79,5.4,5.82,9.19,4.53,2.13-.72,3.81-2.4,4.53-4.53"/>
      <path class="cls-4" d="m404.33,327.61v23.95h22.35v-23.95"/>
      <path class="cls-4" d="m501.33,230.67h-171.66v92.45h171.66v-92.45Z"/>
      <path class="cls-4" d="m501.57,228.44h-172.14c-1.1,0-1.99.89-1.99,1.99v95.18c0,1.1.89,1.99,1.99,1.99h172.14c1.1,0,1.99-.89,1.99-1.99v-95.18c0-1.1-.89-1.99-1.99-1.99Z"/>
    </g>
  </g>
  <g class="cls-8">
    <path class="cls-3" d="m117.91,369.54c-.8,9.44,5.62,59.43,8.93,79.04,1.57,9.29,5.9,24.41,4.35,32.45-2.22,11.2-2.86,25.69-1.64,34.12.77,5.12,3.2,28.75-.27,37.4-1.82,4.53-5.15,27.76-5.15,27.76-8.68,21.88-3.78,20.81-3.78,20.81,2.68,3.29,7.29.26,7.29.26,3.51,2.23,5.93-.53,5.93-.53,3.01,2.49,6.52-.31,6.52-.31,3.78,1.96,7.29-1.65,7.29-1.65,2.17,1.09,2.71-.29,2.71-.29,6.51-.41-3.64-21.24-3.64-21.24-2.43-18.7,2.41-29.11,2.41-29.11,15.87-46.98,16.67-59.44,10.33-77.14-1.78-5.11-2.24-7.13-1.42-9.36,1.9-5.12.52-25.72,2.83-33.9,4.47-15.77,8.88-55.78,11.18-74.44,3.09-25.14-10.94-58.86-10.94-58.86-3.07-13.72,1.43-62.6,1.43-62.6,6.29,9.78,6.05,27.03,6.05,27.03-1,18.09,14.64,45.75,14.64,45.75,7.52,11.43,10.36,22.27,10.36,23.08,0,3.29-.72,11.26-.72,11.26l.29,6.94c.13,1.77,1.12,7.85.97,10.8-1.17,18.11,1.7,14.7,1.7,14.7,2.43,0,5.1-14.57,5.1-14.57,0,3.76-.92,15,1.11,19.25,2.43,5.06,4.21-.87,4.24-2.05.64-23.05,2.03-17.01,2.03-17.01,1.35,18.7,3.01,22.92,5.98,21.46,2.26-1.08.19-22.44.19-22.44,3.86,12.69,6.79,14.71,6.79,14.71,6.37,4.46,2.43-7.87,1.55-10.32-4.71-12.98-4.86-17.48-4.86-17.48,5.89,11.66,10.33,11.23,10.33,11.23,5.74-1.83-5.02-18.34-11.33-26.26-3.22-4.03-7.37-9.43-8.57-12.64-1.96-5.43-3.45-22.88-3.45-22.88-.59-20.6-5.7-29.54-5.7-29.54-8.72-13.94-10.36-39.93-10.36-39.93l-.39-43.89c-3.06-29.94-25.15-30.15-25.15-30.15-22.33-3.32-25.44-10.52-25.44-10.52-4.73-6.8-2.02-19.82-2.02-19.82,3.93-3.18,5.44-11.65,5.44-11.65,6.51-4.99,6.2-12.29,3.19-12.21-2.41.06-1.87-1.93-1.87-1.93,4.07-32.87-25.15-34.55-25.15-34.55h-4.46s-29.23,1.68-25.16,34.53c0,0,.55,2-1.89,1.93-3-.08-3.28,7.22,3.21,12.21,0,0,1.51,8.46,5.44,11.65,0,0,2.71,13.03-2.02,19.82,0,0-3.09,7.21-25.44,10.52,0,0-22.13.22-25.14,30.15l-.42,43.89s-1.61,25.99-10.36,39.93c0,0-5.08,8.95-5.66,29.54,0,0-1.49,17.45-3.44,22.88-1.19,3.19-5.34,8.59-8.59,12.63-6.36,7.89-17.06,24.38-11.33,26.26,0,0,4.46.43,10.33-11.23,0,0-.12,4.46-4.82,17.48-.93,2.41-4.86,14.74,1.51,10.32,0,0,2.95-2.02,6.79-14.71,0,0-2.06,21.36.23,22.44,2.99,1.46,4.63-2.76,5.98-21.46,0,0,1.38-6.04,2.02,17.01.03,1.19,1.78,7.12,4.22,2.05,2.06-4.24,1.13-15.47,1.13-19.25,0,0,2.64,14.57,5.1,14.57,0,0,2.9,3.41,1.71-14.7-.19-2.96.85-9.03.97-10.8l.28-6.94s-.72-7.95-.72-11.26c0-.82,2.85-11.65,10.36-23.08,0,0,15.63-27.67,14.62-45.75,0,0-.22-17.25,6.07-27.03,0,0,4.46,48.87,1.44,62.6,0,0-14.05,33.71-10.96,58.86,2.28,18.72,6.69,58.67,11.17,74.44,2.34,8.17.95,28.75,2.83,33.9.85,2.23.4,4.29-1.42,9.35-6.31,17.7-5.51,30.17,10.36,77.14,0,0,4.89,10.41,2.41,29.11,0,0-10.13,20.82-3.65,21.23,0,0,.5,1.38,2.71.29,0,0,3.51,3.61,7.3,1.65,0,0,3.51,2.8,6.51.31,0,0,2.41,2.76,5.91.53,0,0,4.6,3.1,7.34-.26,0,0,4.86,1.08-3.79-20.81,0,0-3.31-23.2-5.14-27.76-3.48-8.64-1.02-32.32-.28-37.4,1.2-8.48.55-22.94-1.64-34.12-1.6-8.01,2.73-23.15,4.33-32.45,3.29-19.58,9.74-69.58,8.93-79.04l2.67.93c1.91,0,3.11-.93,3.11-.93h0Z"/>
  </g>
  <path class="cls-7" d="m75.87,250.06c-1.69,0-3.11-.67-4.14-1.76l.85-.97c.85.88,2.05,1.42,3.31,1.42,1.55,0,2.47-.77,2.47-1.93s-.85-1.58-1.96-2.09l-1.69-.74c-1.13-.49-2.39-1.33-2.39-3.04,0-1.8,1.55-3.13,3.71-3.13,1.44,0,2.66.59,3.49,1.42l-.81.97c-.74-.65-1.64-1.08-2.68-1.08-1.31,0-2.2.67-2.2,1.73,0,1.13,1.03,1.57,1.96,1.96l1.67.72c1.4.59,2.43,1.4,2.43,3.15,0,1.87-1.51,3.37-4.01,3.37Zm7.76-.05c-1.12,0-1.57-.7-1.57-1.96v-11.02h1.48v11.12c0,.47.2.63.43.63.09,0,.16,0,.31-.04l.2,1.12c-.2.09-.49.14-.85.14Zm6.33-7.92c-1.08,0-2.2.74-2.43,2.61h4.55c0-1.69-.77-2.61-2.12-2.61Zm.23,7.97c-2.36,0-4.21-1.69-4.21-4.59s1.94-4.59,3.96-4.59c2.25,0,3.47,1.62,3.47,4.1,0,.31-.02.59-.07.88h-5.85c.14,1.96,1.4,2.99,2.88,2.99.83,0,1.57-.25,2.18-.67l.54.97c-.77.52-1.71.9-2.9.9Zm8.7-7.97c-1.08,0-2.2.74-2.43,2.61h4.55c0-1.69-.77-2.61-2.12-2.61Zm.23,7.97c-2.36,0-4.21-1.69-4.21-4.59s1.94-4.59,3.96-4.59c2.25,0,3.47,1.62,3.47,4.1,0,.31-.02.59-.07.88h-5.85c.14,1.96,1.4,2.99,2.88,2.99.83,0,1.57-.25,2.18-.67l.54.97c-.77.52-1.71.9-2.9.9Zm5.38,3.47v-12.44h1.22l.13,1.01h.05c.79-.67,1.76-1.22,2.79-1.22,2.25,0,3.46,1.75,3.46,4.46,0,2.97-1.78,4.72-3.78,4.72-.81,0-1.62-.38-2.43-1.01l.04,1.53v2.95h-1.48Zm3.62-4.72c1.44,0,2.5-1.31,2.5-3.47,0-1.93-.65-3.22-2.3-3.22-.74,0-1.48.41-2.34,1.19v4.59c.79.67,1.57.92,2.14.92Z"/>
  <line class="cls-5" x1="115.02" y1="87.76" x2="88.33" y2="215.88"/>
  <path class="cls-7" d="m123.52,79.5c0,5-3.83,9-8.5,9s-8.5-4-8.5-9,3.83-9,8.5-9,8.5,4,8.5,9Z"/>
  <circle class="cls-7" cx="88.33" cy="223.91" r="8.5"/>
  <g class="cls-9">
    <g>
      <path class="cls-1" d="m547.39,351.64h-262.77v6.27h262.77v-6.27Z"/>
      <path class="cls-1" d="m301.16,357.91v242.42c0,1.21.86,2.08,2.08,2.08h6.29c1.21,0,2.08-.86,2.08-2.08v-242.42h-10.46Z"/>
      <path class="cls-1" d="m530.84,357.91v242.42c0,1.21-.86,2.08-2.08,2.08h-6.29c-1.21,0-2.08-.86-2.08-2.08v-242.42h10.46Z"/>
      <path class="cls-1" d="m311.6,374.63h208.79"/>
      <path class="cls-1" d="m301.16,594.72h10.44"/>
      <path class="cls-1" d="m530.84,594.72h-10.44"/>
    </g>
  </g>
</svg>