<?xml version="1.0" encoding="UTF-8"?>
<svg id="Ebene_1" data-name="Ebene 1" xmlns="http://www.w3.org/2000/svg" xmlns:xlink="http://www.w3.org/1999/xlink" viewBox="0 0 595.09 597.49">
  <defs>
    <style>
      .cls-1 {
        clip-path: url(#clippath);
      }

      .cls-2, .cls-3, .cls-4, .cls-5, .cls-6, .cls-7 {
        fill: none;
      }

      .cls-2, .cls-8 {
        stroke-width: 0px;
      }

      .cls-3 {
        stroke-width: 2px;
      }

      .cls-3, .cls-4, .cls-5, .cls-6, .cls-7 {
        stroke: #8c1515;
      }

      .cls-4 {
        stroke-width: .5px;
      }

      .cls-5 {
        stroke-width: .75px;
      }

      .cls-5, .cls-6 {
        stroke-miterlimit: 10;
      }

      .cls-8 {
        fill: #8c1515;
      }
    </style>
    <clipPath id="clippath">
      <rect class="cls-2" x="58.79" y="52.49" width="230" height="545"/>
    </clipPath>
  </defs>
  <g>
    <path class="cls-8" d="m8.9,217.74h7.02v1.3h-5.48v4.12h4.64v1.3h-4.64v5.46h-1.54v-12.19Z"/>
    <path class="cls-8" d="m17.93,228.07v-11.37h1.52v11.48c0,.48.2.65.45.65.09,0,.17,0,.32-.04l.2,1.15c-.2.09-.5.15-.87.15-1.15,0-1.62-.72-1.62-2.03Z"/>
    <path class="cls-8" d="m21.98,225.41c0-2.94,2.01-4.74,4.09-4.74,2.32,0,3.59,1.67,3.59,4.24,0,.32-.02.61-.07.91h-6.04c.15,2.03,1.45,3.08,2.97,3.08.85,0,1.62-.26,2.25-.69l.56,1c-.8.54-1.76.93-2.99.93-2.43,0-4.35-1.75-4.35-4.74Zm1.6-.8h4.7c0-1.75-.8-2.69-2.19-2.69-1.11,0-2.27.76-2.51,2.69Z"/>
    <path class="cls-8" d="m33.45,225.21l-2.73-4.31h1.65l1.21,1.99c.28.48.58,1,.89,1.51h.07c.26-.5.54-1.02.82-1.51l1.1-1.99h1.6l-2.73,4.48,2.94,4.55h-1.65l-1.32-2.1c-.32-.54-.65-1.1-.98-1.62h-.07c-.32.52-.61,1.06-.91,1.62l-1.23,2.1h-1.6l2.95-4.72Z"/>
    <path class="cls-8" d="m39.79,218.03c0-.59.43-1,1.02-1s1.02.41,1.02,1-.43,1-1.02,1-1.02-.39-1.02-1Zm.26,2.86h1.52v9.03h-1.52v-9.03Z"/>
    <path class="cls-8" d="m46.03,228.99h-.06l-.13.93h-1.23v-13.23h1.52v3.6l-.04,1.64c.82-.72,1.82-1.26,2.82-1.26,2.34,0,3.58,1.8,3.58,4.59,0,3.08-1.84,4.89-3.9,4.89-.84,0-1.78-.43-2.58-1.15Zm4.9-3.71c0-1.99-.67-3.33-2.38-3.33-.76,0-1.56.43-2.41,1.23v4.74c.8.69,1.62.95,2.21.95,1.49,0,2.58-1.36,2.58-3.58Z"/>
    <path class="cls-8" d="m54.9,228.07v-11.37h1.52v11.48c0,.48.2.65.45.65.09,0,.17,0,.32-.04l.2,1.15c-.2.09-.5.15-.87.15-1.15,0-1.62-.72-1.62-2.03Z"/>
    <path class="cls-8" d="m58.95,225.41c0-2.94,2.01-4.74,4.09-4.74,2.32,0,3.59,1.67,3.59,4.24,0,.32-.02.61-.07.91h-6.04c.15,2.03,1.45,3.08,2.97,3.08.85,0,1.62-.26,2.25-.69l.56,1c-.8.54-1.76.93-2.99.93-2.43,0-4.35-1.75-4.35-4.74Zm1.6-.8h4.7c0-1.75-.8-2.69-2.19-2.69-1.11,0-2.27.76-2.51,2.69Z"/>
    <path class="cls-8" d="m0,243.34h7.02v1.3H1.54v3.83h4.63v1.32H1.54v4.42h5.67v1.32H0v-12.19Z"/>
    <path class="cls-8" d="m9.65,253.67v-11.37h1.52v11.48c0,.48.2.65.45.65.09,0,.17,0,.32-.04l.2,1.15c-.2.09-.5.15-.87.15-1.15,0-1.62-.72-1.62-2.03Z"/>
    <path class="cls-8" d="m13.7,251.01c0-2.94,2.01-4.74,4.09-4.74,2.32,0,3.58,1.67,3.58,4.24,0,.32-.02.61-.07.91h-6.04c.15,2.03,1.45,3.08,2.97,3.08.85,0,1.62-.26,2.25-.69l.56,1c-.8.54-1.77.93-2.99.93-2.43,0-4.35-1.75-4.35-4.74Zm1.6-.8h4.7c0-1.75-.8-2.69-2.19-2.69-1.11,0-2.27.76-2.51,2.69Z"/>
    <path class="cls-8" d="m22.94,251.03c0-3.03,2.03-4.76,4.35-4.76,1.19,0,2.02.45,2.64,1.06l-.76.93c-.46-.43-1.04-.72-1.82-.72-1.62,0-2.82,1.41-2.82,3.49s1.13,3.45,2.8,3.45c.82,0,1.56-.35,2.1-.85l.67.93c-.74.72-1.75,1.19-2.9,1.19-2.41,0-4.25-1.73-4.25-4.72Z"/>
    <path class="cls-8" d="m32.15,252.68v-4.94h-1.34v-1.15l1.41-.09.19-2.9h1.28v2.9h2.43v1.24h-2.43v4.98c0,1.1.35,1.73,1.39,1.73.32,0,.67-.06,1.02-.22l.32,1.08c-.48.24-1.08.39-1.69.39-1.93,0-2.58-1.21-2.58-3.01Z"/>
    <path class="cls-8" d="m38.18,246.5h1.26l.13,1.64h.06c.59-1.13,1.52-1.86,2.56-1.86.39,0,.67.06.97.19l-.33,1.3c-.28-.07-.46-.11-.83-.11-.76,0-1.67.56-2.29,2.08v5.8h-1.52v-9.03Z"/>
    <path class="cls-8" d="m43.77,251.03c0-3.03,1.97-4.76,4.18-4.76s4.18,1.73,4.18,4.76-1.97,4.72-4.18,4.72-4.18-1.73-4.18-4.72Zm6.78,0c0-2.08-1.04-3.49-2.6-3.49s-2.6,1.41-2.6,3.49,1.06,3.45,2.6,3.45,2.6-1.39,2.6-3.45Z"/>
    <path class="cls-8" d="m54.51,246.5h1.26l.13,1.3h.06c.85-.85,1.78-1.52,3.03-1.52,1.9,0,2.75,1.23,2.75,3.53v5.72h-1.52v-5.52c0-1.69-.52-2.41-1.71-2.41-.93,0-1.56.48-2.47,1.39v6.54h-1.52v-9.03Z"/>
    <path class="cls-8" d="m64.42,243.64c0-.59.43-1,1.02-1s1.02.41,1.02,1-.43,1-1.02,1-1.02-.39-1.02-1Zm.26,2.86h1.52v9.03h-1.52v-9.03Z"/>
    <path class="cls-8" d="m68.59,251.03c0-3.03,2.03-4.76,4.35-4.76,1.19,0,2.02.45,2.64,1.06l-.76.93c-.46-.43-1.04-.72-1.82-.72-1.62,0-2.82,1.41-2.82,3.49s1.13,3.45,2.8,3.45c.82,0,1.56-.35,2.1-.85l.67.93c-.74.72-1.75,1.19-2.9,1.19-2.41,0-4.25-1.73-4.25-4.72Z"/>
    <path class="cls-8" d="m76.72,254.45l.71-.89c.78.65,1.6,1,2.71,1,1.19,0,1.78-.63,1.78-1.41,0-.93-1.02-1.32-2.04-1.69-1.36-.48-2.66-1.13-2.66-2.62s1.15-2.56,3.12-2.56c1.11,0,2.1.43,2.8,1.02l-.71.87c-.63-.45-1.28-.71-2.1-.71-1.13,0-1.65.61-1.65,1.3,0,.82.8,1.15,1.91,1.54,1.41.5,2.79,1.11,2.79,2.75,0,1.47-1.17,2.69-3.31,2.69-1.32,0-2.53-.48-3.36-1.3Z"/>
  </g>
  <g class="cls-1">
    <path class="cls-6" d="m176.7,364.03c-.8,9.44,5.62,59.43,8.93,79.04,1.57,9.29,5.9,24.41,4.35,32.45-2.22,11.2-2.86,25.69-1.64,34.12.77,5.12,3.2,28.75-.27,37.4-1.82,4.53-5.15,27.76-5.15,27.76-8.68,21.88-3.78,20.81-3.78,20.81,2.68,3.29,7.29.26,7.29.26,3.51,2.23,5.93-.53,5.93-.53,3.01,2.49,6.52-.31,6.52-.31,3.78,1.96,7.29-1.65,7.29-1.65,2.17,1.09,2.71-.29,2.71-.29,6.51-.41-3.64-21.24-3.64-21.24-2.43-18.7,2.41-29.11,2.41-29.11,15.87-46.98,16.67-59.44,10.33-77.14-1.78-5.11-2.24-7.13-1.42-9.36,1.9-5.12.52-25.72,2.83-33.9,4.47-15.77,8.88-55.78,11.18-74.44,3.09-25.14-10.94-58.86-10.94-58.86-3.07-13.72,1.43-62.6,1.43-62.6,6.29,9.78,6.05,27.03,6.05,27.03-1,18.09,14.64,45.75,14.64,45.75,7.52,11.43,10.36,22.27,10.36,23.08,0,3.29-.72,11.26-.72,11.26l.29,6.94c.13,1.77,1.12,7.85.97,10.8-1.17,18.11,1.7,14.7,1.7,14.7,2.43,0,5.1-14.57,5.1-14.57,0,3.76-.92,15,1.11,19.25,2.43,5.06,4.21-.87,4.24-2.05.64-23.05,2.03-17.01,2.03-17.01,1.35,18.7,3.01,22.92,5.98,21.46,2.26-1.08.19-22.44.19-22.44,3.86,12.69,6.79,14.71,6.79,14.71,6.37,4.46,2.43-7.87,1.55-10.32-4.71-12.98-4.86-17.48-4.86-17.48,5.89,11.66,10.33,11.23,10.33,11.23,5.74-1.83-5.02-18.34-11.33-26.26-3.22-4.03-7.37-9.43-8.57-12.64-1.96-5.43-3.45-22.88-3.45-22.88-.59-20.6-5.7-29.54-5.7-29.54-8.72-13.94-10.36-39.93-10.36-39.93l-.39-43.89c-3.06-29.94-25.15-30.15-25.15-30.15-22.33-3.32-25.44-10.52-25.44-10.52-4.73-6.8-2.02-19.82-2.02-19.82,3.93-3.18,5.44-11.65,5.44-11.65,6.51-4.99,6.2-12.29,3.19-12.21-2.41.06-1.87-1.93-1.87-1.93,4.07-32.87-25.15-34.55-25.15-34.55h-4.46s-29.23,1.68-25.16,34.53c0,0,.55,2-1.89,1.93-3-.08-3.28,7.22,3.21,12.21,0,0,1.51,8.46,5.44,11.65,0,0,2.71,13.03-2.02,19.82,0,0-3.09,7.21-25.44,10.52,0,0-22.13.22-25.14,30.15l-.42,43.89s-1.61,25.99-10.36,39.93c0,0-5.08,8.95-5.66,29.54,0,0-1.49,17.45-3.44,22.88-1.19,3.19-5.34,8.59-8.59,12.63-6.36,7.89-17.06,24.38-11.33,26.26,0,0,4.46.43,10.33-11.23,0,0-.12,4.46-4.82,17.48-.93,2.41-4.86,14.74,1.51,10.32,0,0,2.95-2.02,6.79-14.71,0,0-2.06,21.36.23,22.44,2.99,1.46,4.63-2.76,5.98-21.46,0,0,1.38-6.04,2.02,17.01.03,1.19,1.78,7.12,4.22,2.05,2.06-4.24,1.13-15.47,1.13-19.25,0,0,2.64,14.57,5.1,14.57,0,0,2.9,3.41,1.71-14.7-.19-2.96.85-9.03.97-10.8l.28-6.94s-.72-7.95-.72-11.26c0-.82,2.85-11.65,10.36-23.08,0,0,15.63-27.67,14.62-45.75,0,0-.22-17.25,6.07-27.03,0,0,4.46,48.87,1.44,62.6,0,0-14.05,33.71-10.96,58.86,2.28,18.72,6.69,58.67,11.17,74.44,2.34,8.17.95,28.75,2.83,33.9.85,2.23.4,4.29-1.42,9.35-6.31,17.7-5.51,30.17,10.36,77.14,0,0,4.89,10.41,2.41,29.11,0,0-10.13,20.82-3.65,21.23,0,0,.5,1.38,2.71.29,0,0,3.51,3.61,7.3,1.65,0,0,3.51,2.8,6.51.31,0,0,2.41,2.76,5.91.53,0,0,4.6,3.1,7.34-.26,0,0,4.86,1.08-3.79-20.81,0,0-3.31-23.2-5.14-27.76-3.48-8.64-1.02-32.32-.28-37.4,1.2-8.48.55-22.94-1.64-34.12-1.6-8.01,2.73-23.15,4.33-32.45,3.29-19.58,9.74-69.58,8.93-79.04l2.67.93c1.91,0,3.11-.93,3.11-.93h0Z"/>
  </g>
  <g>
    <path class="cls-8" d="m373.91,316.89h3.95v1.08h-3.95v-1.08Z"/>
    <path class="cls-8" d="m379.95,313.39h1.17l.12.96h.05c.75-.64,1.68-1.17,2.66-1.17,2.14,0,3.29,1.66,3.29,4.26,0,2.83-1.7,4.5-3.6,4.5-.77,0-1.55-.36-2.32-.96l.03,1.46v2.81h-1.41v-11.86Zm5.84,4.05c0-1.84-.62-3.07-2.2-3.07-.7,0-1.41.39-2.23,1.13v4.38c.75.64,1.49.88,2.04.88,1.37,0,2.39-1.25,2.39-3.31Z"/>
    <path class="cls-8" d="m389.48,316.96c0-3.02.84-5.49,2.27-7.79l.88.41c-1.32,2.18-1.97,4.77-1.97,7.38s.65,5.2,1.97,7.38l-.88.41c-1.42-2.3-2.27-4.77-2.27-7.79Z"/>
    <path class="cls-8" d="m396.24,317.37l-2.52-3.98h1.53l1.12,1.84c.26.45.53.93.82,1.39h.07c.24-.46.5-.94.76-1.39l1.01-1.84h1.48l-2.52,4.14,2.71,4.2h-1.53l-1.22-1.94c-.29-.5-.6-1.01-.91-1.49h-.07c-.29.48-.57.98-.84,1.49l-1.13,1.94h-1.48l2.73-4.36Z"/>
    <path class="cls-8" d="m401.58,324.34c1.32-2.18,1.97-4.77,1.97-7.38s-.65-5.2-1.97-7.38l.87-.41c1.42,2.3,2.27,4.77,2.27,7.79s-.84,5.49-2.27,7.79l-.87-.41Z"/>
    <path class="cls-8" d="m410.98,320.02v-10.5h1.41v10.61c0,.45.19.6.41.6.09,0,.15,0,.29-.03l.19,1.06c-.19.09-.46.14-.81.14-1.06,0-1.49-.67-1.49-1.87Z"/>
    <path class="cls-8" d="m414.74,317.58c0-2.8,1.82-4.39,3.86-4.39s3.86,1.6,3.86,4.39-1.82,4.36-3.86,4.36-3.86-1.6-3.86-4.36Zm6.26,0c0-1.92-.96-3.23-2.4-3.23s-2.4,1.3-2.4,3.23.98,3.19,2.4,3.19,2.4-1.29,2.4-3.19Z"/>
    <path class="cls-8" d="m424.03,323.33c0-.7.46-1.37,1.22-1.89v-.07c-.41-.26-.74-.7-.74-1.36,0-.7.48-1.25.91-1.54v-.07c-.55-.45-1.08-1.25-1.08-2.25,0-1.82,1.44-2.97,3.14-2.97.46,0,.88.09,1.18.21h2.9v1.08h-1.73v.07c.39.36.7.91.7,1.66,0,1.77-1.36,2.88-3.05,2.88-.41,0-.87-.1-1.25-.29-.29.26-.53.53-.53.99,0,.53.34.91,1.48.91h1.61c1.94,0,2.92.6,2.92,1.99,0,1.54-1.63,2.88-4.22,2.88-2.04,0-3.45-.81-3.45-2.25Zm6.3-.43c0-.77-.6-1.03-1.68-1.03h-1.44c-.33,0-.72-.03-1.08-.14-.6.43-.86.93-.86,1.41,0,.89.91,1.46,2.42,1.46,1.6,0,2.64-.82,2.64-1.7Zm-1.08-6.74c0-1.22-.79-1.94-1.77-1.94s-1.77.72-1.77,1.94.81,1.99,1.77,1.99,1.77-.77,1.77-1.99Z"/>
    <path class="cls-8" d="m433.31,316.96c0-3.02.84-5.49,2.27-7.79l.88.41c-1.32,2.18-1.97,4.77-1.97,7.38s.65,5.2,1.97,7.38l-.88.41c-1.42-2.3-2.27-4.77-2.27-7.79Z"/>
    <path class="cls-8" d="m438.52,313.39h1.17l.12.96h.05c.75-.64,1.68-1.17,2.66-1.17,2.14,0,3.29,1.66,3.29,4.26,0,2.83-1.7,4.5-3.6,4.5-.77,0-1.55-.36-2.32-.96l.03,1.46v2.81h-1.41v-11.86Zm5.84,4.05c0-1.84-.62-3.07-2.2-3.07-.7,0-1.41.39-2.23,1.13v4.38c.76.64,1.49.88,2.04.88,1.37,0,2.39-1.25,2.39-3.31Z"/>
    <path class="cls-8" d="m448.05,316.96c0-3.02.84-5.49,2.27-7.79l.88.41c-1.32,2.18-1.97,4.77-1.97,7.38s.65,5.2,1.97,7.38l-.88.41c-1.42-2.3-2.27-4.77-2.27-7.79Z"/>
    <path class="cls-8" d="m454.81,317.37l-2.52-3.98h1.53l1.12,1.84c.26.45.53.93.82,1.39h.07c.24-.46.5-.94.76-1.39l1.01-1.84h1.48l-2.52,4.14,2.71,4.2h-1.53l-1.22-1.94c-.29-.5-.6-1.01-.91-1.49h-.07c-.29.48-.57.98-.84,1.49l-1.13,1.94h-1.48l2.73-4.36Z"/>
    <path class="cls-8" d="m460.15,324.34c1.32-2.18,1.97-4.77,1.97-7.38s-.65-5.2-1.97-7.38l.87-.41c1.42,2.3,2.27,4.77,2.27,7.79s-.84,5.49-2.27,7.79l-.87-.41Z"/>
    <path class="cls-8" d="m465.35,324.34c1.32-2.18,1.97-4.77,1.97-7.38s-.65-5.2-1.97-7.38l.87-.41c1.42,2.3,2.27,4.77,2.27,7.79s-.84,5.49-2.27,7.79l-.87-.41Z"/>
  </g>
  <g>
    <rect class="cls-6" x="331.11" y="245.95" width="177" height="99.61" rx="2.54" ry="2.54"/>
    <rect class="cls-5" x="333.78" y="248.72" width="171.66" height="92.53" rx="2.41" ry="2.41"/>
    <rect class="cls-5" x="408.45" y="345.55" width="22.35" height="23.95"/>
    <rect class="cls-5" x="391.6" y="369.5" width="56.01" height="3.58" rx=".8" ry=".8"/>
  </g>
  <g>
    <rect class="cls-6" x="518.17" y="245.95" width="49.47" height="127.13" rx="1.84" ry="1.84"/>
    <line class="cls-6" x1="518.17" y1="309.17" x2="567.64" y2="309.17"/>
    <circle class="cls-5" cx="542.91" cy="329.33" r="4.26"/>
    <line class="cls-5" x1="538.64" y1="349.49" x2="547.17" y2="349.49"/>
    <line class="cls-5" x1="538.64" y1="352.54" x2="547.17" y2="352.54"/>
    <line class="cls-5" x1="538.64" y1="355.59" x2="547.17" y2="355.59"/>
    <rect class="cls-5" x="522.25" y="252.84" width="41.32" height="8.53" rx="1.85" ry="1.85"/>
    <line class="cls-5" x1="524.66" y1="257.11" x2="561.16" y2="257.11"/>
  </g>
  <line class="cls-7" x1="173.81" y1="81.99" x2="109.18" y2="240.56"/>
  <circle class="cls-8" cx="173.81" cy="81.99" r="8"/>
  <g>
    <circle class="cls-8" cx="109.18" cy="240.56" r="4.76"/>
    <line class="cls-3" x1="97.21" y1="237.43" x2="121.14" y2="243.7"/>
    <line class="cls-4" x1="103.45" y1="238.86" x2="104.87" y2="233.59"/>
    <circle class="cls-8" cx="104.88" cy="233.54" r="1.07"/>
    <line class="cls-4" x1="99.43" y1="238.33" x2="100.26" y2="235.26"/>
    <circle class="cls-8" cx="100.51" cy="234.3" r="1.07"/>
    <line class="cls-4" x1="115.29" y1="242.32" x2="113.87" y2="247.59"/>
    <circle class="cls-8" cx="113.86" cy="247.63" r="1.07"/>
    <line class="cls-4" x1="119.31" y1="242.85" x2="118.48" y2="245.92"/>
    <circle class="cls-8" cx="118.23" cy="246.88" r="1.07"/>
    <line class="cls-4" x1="101.59" y1="238.01" x2="100.76" y2="241.09"/>
    <circle class="cls-8" cx="100.51" cy="242.05" r="1.07"/>
    <line class="cls-4" x1="117.15" y1="242.93" x2="117.98" y2="239.86"/>
    <circle class="cls-8" cx="118.23" cy="238.9" r="1.07"/>
  </g>
</svg>