<?xml version="1.0" encoding="UTF-8"?>
<svg id="Ebene_1" data-name="Ebene 1" xmlns="http://www.w3.org/2000/svg" xmlns:xlink="http://www.w3.org/1999/xlink" viewBox="0 0 595.09 597.49">
  <defs>
    <style>
      .cls-1 {
        clip-path: url(#clippath);
      }

      .cls-2, .cls-3, .cls-4, .cls-5, .cls-6 {
        fill: none;
      }

      .cls-2, .cls-7 {
        stroke-width: 0px;
      }

      .cls-3 {
        stroke-width: 2px;
      }

      .cls-3, .cls-4, .cls-5, .cls-6 {
        stroke: #8c1515;
      }

      .cls-4 {
        stroke-width: .5px;
      }

      .cls-5 {
        stroke-width: .75px;
      }

      .cls-5, .cls-6 {
        stroke-miterlimit: 10;
      }

      .cls-7 {
        fill: #8c1515;
      }
    </style>
    <clipPath id="clippath">
      <rect class="cls-2" x="58.79" y="52.49" width="230" height="545"/>
    </clipPath>
  </defs>
  <g class="cls-1">
    <path class="cls-6" d="m176.7,364.03c-.8,9.44,5.62,59.43,8.93,79.04,1.57,9.29,5.9,24.41,4.35,32.45-2.22,11.2-2.86,25.69-1.64,34.12.77,5.12,3.2,28.75-.27,37.4-1.82,4.53-5.15,27.76-5.15,27.76-8.68,21.88-3.78,20.81-3.78,20.81,2.68,3.29,7.29.26,7.29.26,3.51,2.23,5.93-.53,5.93-.53,3.01,2.49,6.52-.31,6.52-.31,3.78,1.96,7.29-1.65,7.29-1.65,2.17,1.09,2.71-.29,2.71-.29,6.51-.41-3.64-21.24-3.64-21.24-2.43-18.7,2.41-29.11,2.41-29.11,15.87-46.98,16.67-59.44,10.33-77.14-1.78-5.11-2.24-7.13-1.42-9.36,1.9-5.12.52-25.72,2.83-33.9,4.47-15.77,8.88-55.78,11.18-74.44,3.09-25.14-10.94-58.86-10.94-58.86-3.07-13.72,1.43-62.6,1.43-62.6,6.29,9.78,6.05,27.03,6.05,27.03-1,18.09,14.64,45.75,14.64,45.75,7.52,11.43,10.36,22.27,10.36,23.08,0,3.29-.72,11.26-.72,11.26l.29,6.94c.13,1.77,1.12,7.85.97,10.8-1.17,18.11,1.7,14.7,1.7,14.7,2.43,0,5.1-14.57,5.1-14.57,0,3.76-.92,15,1.11,19.25,2.43,5.06,4.21-.87,4.24-2.05.64-23.05,2.03-17.01,2.03-17.01,1.35,18.7,3.01,22.92,5.98,21.46,2.26-1.08.19-22.44.19-22.44,3.86,12.69,6.79,14.71,6.79,14.71,6.37,4.46,2.43-7.87,1.55-10.32-4.71-12.98-4.86-17.48-4.86-17.48,5.89,11.66,10.33,11.23,10.33,11.23,5.74-1.83-5.02-18.34-11.33-26.26-3.22-4.03-7.37-9.43-8.57-12.64-1.96-5.43-3.45-22.88-3.45-22.88-.59-20.6-5.7-29.54-5.7-29.54-8.72-13.94-10.36-39.93-10.36-39.93l-.39-43.89c-3.06-29.94-25.15-30.15-25.15-30.15-22.33-3.32-25.44-10.52-25.44-10.52-4.73-6.8-2.02-19.82-2.02-19.82,3.93-3.18,5.44-11.65,5.44-11.65,6.51-4.99,6.2-12.29,3.19-12.21-2.41.06-1.87-1.93-1.87-1.93,4.07-32.87-25.15-34.55-25.15-34.55h-4.46s-29.23,1.68-25.16,34.53c0,0,.55,2-1.89,1.93-3-.08-3.28,7.22,3.21,12.21,0,0,1.51,8.46,5.44,11.65,0,0,2.71,13.03-2.02,19.82,0,0-3.09,7.21-25.44,10.52,0,0-22.13.22-25.14,30.15l-.42,43.89s-1.61,25.99-10.36,39.93c0,0-5.08,8.95-5.66,29.54,0,0-1.49,17.45-3.44,22.88-1.19,3.19-5.34,8.59-8.59,12.63-6.36,7.89-17.06,24.38-11.33,26.26,0,0,4.46.43,10.33-11.23,0,0-.12,4.46-4.82,17.48-.93,2.41-4.86,14.74,1.51,10.32,0,0,2.95-2.02,6.79-14.71,0,0-2.06,21.36.23,22.44,2.99,1.46,4.63-2.76,5.98-21.46,0,0,1.38-6.04,2.02,17.01.03,1.19,1.78,7.12,4.22,2.05,2.06-4.24,1.13-15.47,1.13-19.25,0,0,2.64,14.57,5.1,14.57,0,0,2.9,3.41,1.71-14.7-.19-2.96.85-9.03.97-10.8l.28-6.94s-.72-7.95-.72-11.26c0-.82,2.85-11.65,10.36-23.08,0,0,15.63-27.67,14.62-45.75,0,0-.22-17.25,6.07-27.03,0,0,4.46,48.87,1.44,62.6,0,0-14.05,33.71-10.96,58.86,2.28,18.72,6.69,58.67,11.17,74.44,2.34,8.17.95,28.75,2.83,33.9.85,2.23.4,4.29-1.42,9.35-6.31,17.7-5.51,30.17,10.36,77.14,0,0,4.89,10.41,2.41,29.11,0,0-10.13,20.82-3.65,21.23,0,0,.5,1.38,2.71.29,0,0,3.51,3.61,7.3,1.65,0,0,3.51,2.8,6.51.31,0,0,2.41,2.76,5.91.53,0,0,4.6,3.1,7.34-.26,0,0,4.86,1.08-3.79-20.81,0,0-3.31-23.2-5.14-27.76-3.48-8.64-1.02-32.32-.28-37.4,1.2-8.48.55-22.94-1.64-34.12-1.6-8.01,2.73-23.15,4.33-32.45,3.29-19.58,9.74-69.58,8.93-79.04l2.67.93c1.91,0,3.11-.93,3.11-.93h0Z"/>
  </g>
  <path class="cls-7" d="m116.48,12.49V.68h3.51c2.39,0,4.05.81,4.05,2.88,0,1.22-.61,2.21-1.73,2.57v.07c1.48.27,2.41,1.19,2.41,2.77,0,2.36-1.84,3.51-4.48,3.51h-3.76Zm1.49-6.79h1.75c2.02,0,2.84-.74,2.84-1.94,0-1.37-.94-1.89-2.77-1.89h-1.82v3.83Zm0,5.6h2.05c2.03,0,3.22-.74,3.22-2.32,0-1.46-1.15-2.12-3.22-2.12h-2.05v4.45Zm8.94,1.19V3.74h1.22l.13,1.58h.05c.58-1.1,1.48-1.8,2.48-1.8.38,0,.65.05.94.18l-.32,1.26c-.27-.07-.45-.11-.81-.11-.74,0-1.62.54-2.21,2.02v5.62h-1.48Zm7.82.22c-1.46,0-2.57-.9-2.57-2.48,0-1.96,1.66-2.88,5.4-3.29-.02-1.1-.4-2.16-1.82-2.16-1.01,0-1.93.47-2.61.9l-.58-1.01c.81-.54,2.03-1.13,3.44-1.13,2.12,0,3.04,1.42,3.04,3.6v5.36h-1.22l-.13-1.04h-.05c-.86.7-1.8,1.26-2.9,1.26Zm.41-1.22c.85,0,1.57-.38,2.41-1.13v-2.36c-2.95.34-3.94,1.01-3.94,2.14,0,.97.68,1.35,1.53,1.35Zm6.64,1.01V3.74h1.48v8.75h-1.48Zm.74-10.55c-.58,0-.99-.38-.99-.97s.41-.97.99-.97.99.4.99.97-.41.97-.99.97Zm3.69,10.55V3.74h1.22l.13,1.26h.05c.83-.83,1.73-1.48,2.93-1.48,1.84,0,2.66,1.19,2.66,3.42v5.54h-1.48v-5.35c0-1.64-.5-2.34-1.66-2.34-.9,0-1.51.47-2.39,1.35v6.34h-1.48Zm13.59,0V.68h2.95c3.64,0,5.58,2.11,5.58,5.85s-1.94,5.96-5.51,5.96h-3.02Zm1.49-1.22h1.35c2.75,0,4.14-1.75,4.14-4.73s-1.39-4.63-4.14-4.63h-1.35v9.36Zm9.58,4.99c-.4,0-.74-.07-1.03-.18l.32-1.15c.22.07.43.11.63.11.99,0,1.62-.79,1.98-1.87l.2-.65-3.51-8.77h1.53l1.78,4.84c.27.76.58,1.66.85,2.47h.07c.25-.79.5-1.69.74-2.47l1.57-4.84h1.44l-3.29,9.47c-.61,1.73-1.51,3.04-3.28,3.04Zm8.26-3.76V3.74h1.22l.13,1.26h.05c.83-.83,1.73-1.48,2.93-1.48,1.84,0,2.66,1.19,2.66,3.42v5.54h-1.48v-5.35c0-1.64-.5-2.34-1.66-2.34-.9,0-1.51.47-2.39,1.35v6.34h-1.48Zm11.86.22c-1.46,0-2.57-.9-2.57-2.48,0-1.96,1.66-2.88,5.4-3.29-.02-1.1-.4-2.16-1.82-2.16-1.01,0-1.93.47-2.61.9l-.58-1.01c.81-.54,2.03-1.13,3.44-1.13,2.12,0,3.04,1.42,3.04,3.6v5.36h-1.22l-.13-1.04h-.05c-.86.7-1.8,1.26-2.9,1.26Zm.41-1.22c.85,0,1.57-.38,2.41-1.13v-2.36c-2.95.34-3.94,1.01-3.94,2.14,0,.97.68,1.35,1.53,1.35Zm6.64,1.01V3.74h1.22l.13,1.26h.05c.76-.83,1.67-1.48,2.72-1.48,1.33,0,2.05.63,2.41,1.67.92-.99,1.82-1.67,2.88-1.67,1.8,0,2.66,1.19,2.66,3.42v5.54h-1.48v-5.35c0-1.64-.52-2.34-1.62-2.34-.68,0-1.39.45-2.2,1.35v6.34h-1.48v-5.35c0-1.64-.52-2.34-1.64-2.34-.65,0-1.39.45-2.2,1.35v6.34h-1.48Zm14.92,0V3.74h1.48v8.75h-1.48Zm.74-10.55c-.58,0-.99-.38-.99-.97s.41-.97.99-.97.99.4.99.97-.41.97-.99.97Zm7.17,10.76c-2.34,0-4.12-1.67-4.12-4.57s1.96-4.61,4.21-4.61c1.15,0,1.96.43,2.56,1.03l-.74.9c-.45-.41-1.01-.7-1.76-.7-1.57,0-2.74,1.37-2.74,3.38s1.1,3.35,2.72,3.35c.79,0,1.51-.34,2.03-.83l.65.9c-.72.7-1.69,1.15-2.81,1.15Zm7.02,0c-1.28,0-2.45-.47-3.26-1.26l.68-.86c.76.63,1.55.97,2.63.97,1.15,0,1.73-.61,1.73-1.37,0-.9-.99-1.28-1.98-1.64-1.31-.47-2.57-1.1-2.57-2.54s1.12-2.48,3.02-2.48c1.08,0,2.03.41,2.72.99l-.68.85c-.61-.43-1.24-.68-2.03-.68-1.1,0-1.6.59-1.6,1.26,0,.79.77,1.12,1.85,1.49,1.37.49,2.7,1.08,2.7,2.66,0,1.42-1.13,2.61-3.2,2.61Z"/>
  <path class="cls-7" d="m188.43,44.49l2.48-8.3-8.43,2,5.95,6.3Zm-30.25,0c0-7.85,6.58-14.25,14.75-14.25v-1.5c-8.95,0-16.25,7.03-16.25,15.75h1.5Zm14.75-14.25c5.84,0,10.88,3.28,13.27,8.02l1.34-.68c-2.64-5.24-8.2-8.84-14.61-8.84v1.5Z"/>
  <g>
    <path class="cls-7" d="m373.91,316.89h3.95v1.08h-3.95v-1.08Z"/>
    <path class="cls-7" d="m379.95,313.39h1.17l.12.96h.05c.75-.64,1.68-1.17,2.66-1.17,2.14,0,3.29,1.66,3.29,4.26,0,2.83-1.7,4.5-3.6,4.5-.77,0-1.55-.36-2.32-.96l.03,1.46v2.81h-1.41v-11.86Zm5.84,4.05c0-1.84-.62-3.07-2.2-3.07-.7,0-1.41.39-2.23,1.13v4.38c.75.64,1.49.88,2.04.88,1.37,0,2.39-1.25,2.39-3.31Z"/>
    <path class="cls-7" d="m389.48,316.96c0-3.02.84-5.49,2.27-7.79l.88.41c-1.32,2.18-1.97,4.77-1.97,7.38s.65,5.2,1.97,7.38l-.88.41c-1.42-2.3-2.27-4.77-2.27-7.79Z"/>
    <path class="cls-7" d="m396.24,317.37l-2.52-3.98h1.53l1.12,1.84c.26.45.53.93.82,1.39h.07c.24-.46.5-.94.76-1.39l1.01-1.84h1.48l-2.52,4.14,2.71,4.2h-1.53l-1.22-1.94c-.29-.5-.6-1.01-.91-1.49h-.07c-.29.48-.57.98-.84,1.49l-1.13,1.94h-1.48l2.73-4.36Z"/>
    <path class="cls-7" d="m401.58,324.34c1.32-2.18,1.97-4.77,1.97-7.38s-.65-5.2-1.97-7.38l.87-.41c1.42,2.3,2.27,4.77,2.27,7.79s-.84,5.49-2.27,7.79l-.87-.41Z"/>
    <path class="cls-7" d="m410.98,320.02v-10.5h1.41v10.61c0,.45.19.6.41.6.09,0,.15,0,.29-.03l.19,1.06c-.19.09-.46.14-.81.14-1.06,0-1.49-.67-1.49-1.87Z"/>
    <path class="cls-7" d="m414.74,317.58c0-2.8,1.82-4.39,3.86-4.39s3.86,1.6,3.86,4.39-1.82,4.36-3.86,4.36-3.86-1.6-3.86-4.36Zm6.26,0c0-1.92-.96-3.23-2.4-3.23s-2.4,1.3-2.4,3.23.98,3.19,2.4,3.19,2.4-1.29,2.4-3.19Z"/>
    <path class="cls-7" d="m424.03,323.33c0-.7.46-1.37,1.22-1.89v-.07c-.41-.26-.74-.7-.74-1.36,0-.7.48-1.25.91-1.54v-.07c-.55-.45-1.08-1.25-1.08-2.25,0-1.82,1.44-2.97,3.14-2.97.46,0,.88.09,1.18.21h2.9v1.08h-1.73v.07c.39.36.7.91.7,1.66,0,1.77-1.36,2.88-3.05,2.88-.41,0-.87-.1-1.25-.29-.29.26-.53.53-.53.99,0,.53.34.91,1.48.91h1.61c1.94,0,2.92.6,2.92,1.99,0,1.54-1.63,2.88-4.22,2.88-2.04,0-3.45-.81-3.45-2.25Zm6.3-.43c0-.77-.6-1.03-1.68-1.03h-1.44c-.33,0-.72-.03-1.08-.14-.6.43-.86.93-.86,1.41,0,.89.91,1.46,2.42,1.46,1.6,0,2.64-.82,2.64-1.7Zm-1.08-6.74c0-1.22-.79-1.94-1.77-1.94s-1.77.72-1.77,1.94.81,1.99,1.77,1.99,1.77-.77,1.77-1.99Z"/>
    <path class="cls-7" d="m433.31,316.96c0-3.02.84-5.49,2.27-7.79l.88.41c-1.32,2.18-1.97,4.77-1.97,7.38s.65,5.2,1.97,7.38l-.88.41c-1.42-2.3-2.27-4.77-2.27-7.79Z"/>
    <path class="cls-7" d="m438.52,313.39h1.17l.12.96h.05c.75-.64,1.68-1.17,2.66-1.17,2.14,0,3.29,1.66,3.29,4.26,0,2.83-1.7,4.5-3.6,4.5-.77,0-1.55-.36-2.32-.96l.03,1.46v2.81h-1.41v-11.86Zm5.84,4.05c0-1.84-.62-3.07-2.2-3.07-.7,0-1.41.39-2.23,1.13v4.38c.76.64,1.49.88,2.04.88,1.37,0,2.39-1.25,2.39-3.31Z"/>
    <path class="cls-7" d="m448.05,316.96c0-3.02.84-5.49,2.27-7.79l.88.41c-1.32,2.18-1.97,4.77-1.97,7.38s.65,5.2,1.97,7.38l-.88.41c-1.42-2.3-2.27-4.77-2.27-7.79Z"/>
    <path class="cls-7" d="m454.81,317.37l-2.52-3.98h1.53l1.12,1.84c.26.45.53.93.82,1.39h.07c.24-.46.5-.94.76-1.39l1.01-1.84h1.48l-2.52,4.14,2.71,4.2h-1.53l-1.22-1.94c-.29-.5-.6-1.01-.91-1.49h-.07c-.29.48-.57.98-.84,1.49l-1.13,1.94h-1.48l2.73-4.36Z"/>
    <path class="cls-7" d="m460.15,324.34c1.32-2.18,1.97-4.77,1.97-7.38s-.65-5.2-1.97-7.38l.87-.41c1.42,2.3,2.27,4.77,2.27,7.79s-.84,5.49-2.27,7.79l-.87-.41Z"/>
    <path class="cls-7" d="m465.35,324.34c1.32-2.18,1.97-4.77,1.97-7.38s-.65-5.2-1.97-7.38l.87-.41c1.42,2.3,2.27,4.77,2.27,7.79s-.84,5.49-2.27,7.79l-.87-.41Z"/>
  </g>
  <g>
    <rect class="cls-6" x="331.11" y="245.95" width="177" height="99.61" rx="2.54" ry="2.54"/>
    <rect class="cls-5" x="333.78" y="248.72" width="171.66" height="92.53" rx="2.41" ry="2.41"/>
    <rect class="cls-5" x="408.45" y="345.55" width="22.35" height="23.95"/>
    <rect class="cls-5" x="391.6" y="369.5" width="56.01" height="3.58" rx=".8" ry=".8"/>
  </g>
  <g>
    <rect class="cls-6" x="518.17" y="245.95" width="49.47" height="127.13" rx="1.84" ry="1.84"/>
    <line class="cls-6" x1="518.17" y1="309.17" x2="567.64" y2="309.17"/>
    <circle class="cls-5" cx="542.91" cy="329.33" r="4.26"/>
    <line class="cls-5" x1="538.64" y1="349.49" x2="547.17" y2="349.49"/>
    <line class="cls-5" x1="538.64" y1="352.54" x2="547.17" y2="352.54"/>
    <line class="cls-5" x1="538.64" y1="355.59" x2="547.17" y2="355.59"/>
    <rect class="cls-5" x="522.25" y="252.84" width="41.32" height="8.53" rx="1.85" ry="1.85"/>
    <line class="cls-5" x1="524.66" y1="257.11" x2="561.16" y2="257.11"/>
  </g>
  <circle class="cls-7" cx="173.81" cy="81.99" r="8"/>
  <g>
    <line class="cls-3" x1="97.21" y1="237.43" x2="121.14" y2="243.7"/>
    <line class="cls-4" x1="103.45" y1="238.86" x2="104.87" y2="233.59"/>
    <circle class="cls-7" cx="104.88" cy="233.54" r="1.07"/>
    <line class="cls-4" x1="99.43" y1="238.33" x2="100.26" y2="235.26"/>
    <circle class="cls-7" cx="100.51" cy="234.3" r="1.07"/>
    <line class="cls-4" x1="115.29" y1="242.32" x2="113.87" y2="247.59"/>
    <circle class="cls-7" cx="113.86" cy="247.63" r="1.07"/>
    <line class="cls-4" x1="119.31" y1="242.85" x2="118.48" y2="245.92"/>
    <circle class="cls-7" cx="118.23" cy="246.88" r="1.07"/>
    <line class="cls-4" x1="101.59" y1="238.01" x2="100.76" y2="241.09"/>
    <circle class="cls-7" cx="100.51" cy="242.05" r="1.07"/>
    <line class="cls-4" x1="117.15" y1="242.93" x2="117.98" y2="239.86"/>
    <circle class="cls-7" cx="118.23" cy="238.9" r="1.07"/>
  </g>
</svg>