<?xml version="1.0" encoding="UTF-8"?>
<svg id="Ebene_1" data-name="Ebene 1" xmlns="http://www.w3.org/2000/svg" xmlns:xlink="http://www.w3.org/1999/xlink" viewBox="0 0 549 603">
  <defs>
    <style>
      .cls-1, .cls-2, .cls-3, .cls-4 {
        fill: none;
      }

      .cls-1, .cls-3, .cls-4 {
        stroke: #8c1515;
      }

      .cls-1, .cls-4 {
        stroke-linecap: round;
        stroke-linejoin: round;
      }

      .cls-5 {
        clip-path: url(#clippath);
      }

      .cls-2, .cls-6 {
        stroke-width: 0px;
      }

      .cls-7 {
        clip-path: url(#clippath-1);
      }

      .cls-8 {
        clip-path: url(#clippath-2);
      }

      .cls-3 {
        stroke-miterlimit: 10;
      }

      .cls-4 {
        stroke-width: .8px;
      }

      .cls-6 {
        fill: #8c1515;
      }
    </style>
    <clipPath id="clippath">
      <rect class="cls-2" x="327" y="228" width="177" height="124"/>
    </clipPath>
    <clipPath id="clippath-1">
      <rect class="cls-2" y="58" width="230" height="545"/>
    </clipPath>
    <clipPath id="clippath-2">
      <rect class="cls-2" x="283" y="350.03" width="266" height="254"/>
    </clipPath>
  </defs>
  <g class="cls-5">
    <g>
      <path class="cls-4" d="m426.67,351.56h52.51c-.52-1.68-3.27-2.75-8.26-3.22l-44.23-4.17"/>
      <path class="cls-4" d="m404.33,351.56h-52.5c.52-1.68,3.27-2.75,8.27-3.22l44.23-4.17"/>
      <path class="cls-4" d="m408.64,327.61c1.29,3.79,5.4,5.82,9.19,4.53,2.13-.72,3.81-2.4,4.53-4.53"/>
      <path class="cls-4" d="m404.33,327.61v23.95h22.35v-23.95"/>
      <path class="cls-4" d="m501.33,230.67h-171.66v92.45h171.66v-92.45Z"/>
      <path class="cls-4" d="m501.57,228.44h-172.14c-1.1,0-1.99.89-1.99,1.99v95.18c0,1.1.89,1.99,1.99,1.99h172.14c1.1,0,1.99-.89,1.99-1.99v-95.18c0-1.1-.89-1.99-1.99-1.99Z"/>
    </g>
  </g>
  <g class="cls-7">
    <path class="cls-3" d="m117.91,369.54c-.8,9.44,5.62,59.43,8.93,79.04,1.57,9.29,5.9,24.41,4.35,32.45-2.22,11.2-2.86,25.69-1.64,34.12.77,5.12,3.2,28.75-.27,37.4-1.82,4.53-5.15,27.76-5.15,27.76-8.68,21.88-3.78,20.81-3.78,20.81,2.68,3.29,7.29.26,7.29.26,3.51,2.23,5.93-.53,5.93-.53,3.01,2.49,6.52-.31,6.52-.31,3.78,1.96,7.29-1.65,7.29-1.65,2.17,1.09,2.71-.29,2.71-.29,6.51-.41-3.64-21.24-3.64-21.24-2.43-18.7,2.41-29.11,2.41-29.11,15.87-46.98,16.67-59.44,10.33-77.14-1.78-5.11-2.24-7.13-1.42-9.36,1.9-5.12.52-25.72,2.83-33.9,4.47-15.77,8.88-55.78,11.18-74.44,3.09-25.14-10.94-58.86-10.94-58.86-3.07-13.72,1.43-62.6,1.43-62.6,6.29,9.78,6.05,27.03,6.05,27.03-1,18.09,14.64,45.75,14.64,45.75,7.52,11.43,10.36,22.27,10.36,23.08,0,3.29-.72,11.26-.72,11.26l.29,6.94c.13,1.77,1.12,7.85.97,10.8-1.17,18.11,1.7,14.7,1.7,14.7,2.43,0,5.1-14.57,5.1-14.57,0,3.76-.92,15,1.11,19.25,2.43,5.06,4.21-.87,4.24-2.05.64-23.05,2.03-17.01,2.03-17.01,1.35,18.7,3.01,22.92,5.98,21.46,2.26-1.08.19-22.44.19-22.44,3.86,12.69,6.79,14.71,6.79,14.71,6.37,4.46,2.43-7.87,1.55-10.32-4.71-12.98-4.86-17.48-4.86-17.48,5.89,11.66,10.33,11.23,10.33,11.23,5.74-1.83-5.02-18.34-11.33-26.26-3.22-4.03-7.37-9.43-8.57-12.64-1.96-5.43-3.45-22.88-3.45-22.88-.59-20.6-5.7-29.54-5.7-29.54-8.72-13.94-10.36-39.93-10.36-39.93l-.39-43.89c-3.06-29.94-25.15-30.15-25.15-30.15-22.33-3.32-25.44-10.52-25.44-10.52-4.73-6.8-2.02-19.82-2.02-19.82,3.93-3.18,5.44-11.65,5.44-11.65,6.51-4.99,6.2-12.29,3.19-12.21-2.41.06-1.87-1.93-1.87-1.93,4.07-32.87-25.15-34.55-25.15-34.55h-4.46s-29.23,1.68-25.16,34.53c0,0,.55,2-1.89,1.93-3-.08-3.28,7.22,3.21,12.21,0,0,1.51,8.46,5.44,11.65,0,0,2.71,13.03-2.02,19.82,0,0-3.09,7.21-25.44,10.52,0,0-22.13.22-25.14,30.15l-.42,43.89s-1.61,25.99-10.36,39.93c0,0-5.08,8.95-5.66,29.54,0,0-1.49,17.45-3.44,22.88-1.19,3.19-5.34,8.59-8.59,12.63-6.36,7.89-17.06,24.38-11.33,26.26,0,0,4.46.43,10.33-11.23,0,0-.12,4.46-4.82,17.48-.93,2.41-4.86,14.74,1.51,10.32,0,0,2.95-2.02,6.79-14.71,0,0-2.06,21.36.23,22.44,2.99,1.46,4.63-2.76,5.98-21.46,0,0,1.38-6.04,2.02,17.01.03,1.19,1.78,7.12,4.22,2.05,2.06-4.24,1.13-15.47,1.13-19.25,0,0,2.64,14.57,5.1,14.57,0,0,2.9,3.41,1.71-14.7-.19-2.96.85-9.03.97-10.8l.28-6.94s-.72-7.95-.72-11.26c0-.82,2.85-11.65,10.36-23.08,0,0,15.63-27.67,14.62-45.75,0,0-.22-17.25,6.07-27.03,0,0,4.46,48.87,1.44,62.6,0,0-14.05,33.71-10.96,58.86,2.28,18.72,6.69,58.67,11.17,74.44,2.34,8.17.95,28.75,2.83,33.9.85,2.23.4,4.29-1.42,9.35-6.31,17.7-5.51,30.17,10.36,77.14,0,0,4.89,10.41,2.41,29.11,0,0-10.13,20.82-3.65,21.23,0,0,.5,1.38,2.71.29,0,0,3.51,3.61,7.3,1.65,0,0,3.51,2.8,6.51.31,0,0,2.41,2.76,5.91.53,0,0,4.6,3.1,7.34-.26,0,0,4.86,1.08-3.79-20.81,0,0-3.31-23.2-5.14-27.76-3.48-8.64-1.02-32.32-.28-37.4,1.2-8.48.55-22.94-1.64-34.12-1.6-8.01,2.73-23.15,4.33-32.45,3.29-19.58,9.74-69.58,8.93-79.04l2.67.93c1.91,0,3.11-.93,3.11-.93h0Z"/>
  </g>
  <path class="cls-6" d="m123.52,79.5c0,5-3.83,9-8.5,9s-8.5-4-8.5-9,3.83-9,8.5-9,8.5,4,8.5,9Z"/>
  <path class="cls-6" d="m57.69,18V6.19h3.51c2.39,0,4.05.81,4.05,2.88,0,1.22-.61,2.21-1.73,2.57v.07c1.48.27,2.41,1.19,2.41,2.77,0,2.36-1.84,3.51-4.48,3.51h-3.76Zm1.49-6.79h1.75c2.02,0,2.84-.74,2.84-1.94,0-1.37-.94-1.89-2.77-1.89h-1.82v3.83Zm0,5.6h2.05c2.03,0,3.22-.74,3.22-2.32,0-1.46-1.15-2.12-3.22-2.12h-2.05v4.45Zm8.94,1.19v-8.75h1.22l.13,1.58h.05c.58-1.1,1.48-1.8,2.48-1.8.38,0,.65.05.94.18l-.32,1.26c-.27-.07-.45-.11-.81-.11-.74,0-1.62.54-2.21,2.02v5.62h-1.48Zm7.82.22c-1.46,0-2.57-.9-2.57-2.48,0-1.96,1.66-2.88,5.4-3.29-.02-1.1-.4-2.16-1.82-2.16-1.01,0-1.93.47-2.61.9l-.58-1.01c.81-.54,2.03-1.13,3.44-1.13,2.12,0,3.04,1.42,3.04,3.6v5.36h-1.22l-.13-1.04h-.05c-.86.7-1.8,1.26-2.9,1.26Zm.41-1.22c.85,0,1.57-.38,2.41-1.13v-2.36c-2.95.34-3.94,1.01-3.94,2.14,0,.97.68,1.35,1.53,1.35Zm6.64,1.01v-8.75h1.48v8.75h-1.48Zm.74-10.55c-.58,0-.99-.38-.99-.97s.41-.97.99-.97.99.4.99.97-.41.97-.99.97Zm3.69,10.55v-8.75h1.22l.13,1.26h.05c.83-.83,1.73-1.48,2.93-1.48,1.84,0,2.66,1.19,2.66,3.42v5.54h-1.48v-5.35c0-1.64-.5-2.34-1.66-2.34-.9,0-1.51.47-2.39,1.35v6.34h-1.48Zm13.59,0V6.19h2.95c3.64,0,5.58,2.11,5.58,5.85s-1.94,5.96-5.51,5.96h-3.02Zm1.49-1.22h1.35c2.75,0,4.14-1.75,4.14-4.73s-1.39-4.63-4.14-4.63h-1.35v9.36Zm9.58,4.99c-.4,0-.74-.07-1.03-.18l.32-1.15c.22.07.43.11.63.11.99,0,1.62-.79,1.98-1.87l.2-.65-3.51-8.77h1.53l1.78,4.84c.27.76.58,1.66.85,2.47h.07c.25-.79.5-1.69.74-2.47l1.57-4.84h1.44l-3.29,9.47c-.61,1.73-1.51,3.04-3.28,3.04Zm8.26-3.76v-8.75h1.22l.13,1.26h.05c.83-.83,1.73-1.48,2.93-1.48,1.84,0,2.66,1.19,2.66,3.42v5.54h-1.48v-5.35c0-1.64-.5-2.34-1.66-2.34-.9,0-1.51.47-2.39,1.35v6.34h-1.48Zm11.86.22c-1.46,0-2.57-.9-2.57-2.48,0-1.96,1.66-2.88,5.4-3.29-.02-1.1-.4-2.16-1.82-2.16-1.01,0-1.93.47-2.61.9l-.58-1.01c.81-.54,2.03-1.13,3.44-1.13,2.12,0,3.04,1.42,3.04,3.6v5.36h-1.22l-.13-1.04h-.05c-.86.7-1.8,1.26-2.9,1.26Zm.41-1.22c.85,0,1.57-.38,2.41-1.13v-2.36c-2.95.34-3.94,1.01-3.94,2.14,0,.97.68,1.35,1.53,1.35Zm6.64,1.01v-8.75h1.22l.13,1.26h.05c.76-.83,1.67-1.48,2.72-1.48,1.33,0,2.05.63,2.41,1.67.92-.99,1.82-1.67,2.88-1.67,1.8,0,2.66,1.19,2.66,3.42v5.54h-1.48v-5.35c0-1.64-.52-2.34-1.62-2.34-.68,0-1.39.45-2.2,1.35v6.34h-1.48v-5.35c0-1.64-.52-2.34-1.64-2.34-.65,0-1.39.45-2.2,1.35v6.34h-1.48Zm14.92,0v-8.75h1.48v8.75h-1.48Zm.74-10.55c-.58,0-.99-.38-.99-.97s.41-.97.99-.97.99.4.99.97-.41.97-.99.97Zm7.17,10.76c-2.34,0-4.12-1.67-4.12-4.57s1.96-4.61,4.21-4.61c1.15,0,1.96.43,2.56,1.03l-.74.9c-.45-.41-1.01-.7-1.76-.7-1.57,0-2.74,1.37-2.74,3.38s1.1,3.35,2.72,3.35c.79,0,1.51-.34,2.03-.83l.65.9c-.72.7-1.69,1.15-2.81,1.15Zm7.02,0c-1.28,0-2.45-.47-3.26-1.26l.68-.86c.76.63,1.55.97,2.63.97,1.15,0,1.73-.61,1.73-1.37,0-.9-.99-1.28-1.98-1.64-1.31-.47-2.57-1.1-2.57-2.54s1.12-2.48,3.02-2.48c1.08,0,2.03.41,2.72.99l-.68.85c-.61-.43-1.24-.68-2.03-.68-1.1,0-1.6.59-1.6,1.26,0,.79.77,1.12,1.85,1.49,1.37.49,2.7,1.08,2.7,2.66,0,1.42-1.13,2.61-3.2,2.61Z"/>
  <g class="cls-8">
    <g>
      <path class="cls-1" d="m547.39,351.64h-262.77v6.27h262.77v-6.27Z"/>
      <path class="cls-1" d="m301.16,357.91v242.42c0,1.21.86,2.08,2.08,2.08h6.29c1.21,0,2.08-.86,2.08-2.08v-242.42h-10.46Z"/>
      <path class="cls-1" d="m530.84,357.91v242.42c0,1.21-.86,2.08-2.08,2.08h-6.29c-1.21,0-2.08-.86-2.08-2.08v-242.42h10.46Z"/>
      <path class="cls-1" d="m311.6,374.63h208.79"/>
      <path class="cls-1" d="m301.16,594.72h10.44"/>
      <path class="cls-1" d="m530.84,594.72h-10.44"/>
    </g>
  </g>
  <path class="cls-6" d="m129.64,50l2.48-8.3-8.43,2,5.95,6.3Zm-30.25,0c0-7.85,6.58-14.25,14.75-14.25v-1.5c-8.95,0-16.25,7.03-16.25,15.75h1.5Zm14.75-14.25c5.84,0,10.88,3.28,13.27,8.02l1.34-.68c-2.64-5.24-8.2-8.84-14.61-8.84v1.5Z"/>
</svg>