<?xml version="1.0" encoding="UTF-8"?>
<svg id="Ebene_1" data-name="Ebene 1" xmlns="http://www.w3.org/2000/svg" xmlns:xlink="http://www.w3.org/1999/xlink" viewBox="0 0 595.09 597.49">
  <defs>
    <style>
      .cls-1 {
        clip-path: url(#clippath);
      }

      .cls-2, .cls-3, .cls-4, .cls-5, .cls-6, .cls-7 {
        fill: none;
      }

      .cls-2, .cls-8 {
        stroke-width: 0px;
      }

      .cls-3 {
        stroke-width: 2px;
      }

      .cls-3, .cls-4, .cls-5, .cls-6, .cls-7 {
        stroke: #8c1515;
      }

      .cls-4 {
        stroke-width: .5px;
      }

      .cls-5 {
        stroke-width: .75px;
      }

      .cls-5, .cls-6 {
        stroke-miterlimit: 10;
      }

      .cls-8 {
        fill: #8c1515;
      }
    </style>
    <clipPath id="clippath">
      <rect class="cls-2" x="58.79" y="52.49" width="230" height="545"/>
    </clipPath>
  </defs>
  <g>
    <path class="cls-8" d="m8.9,217.74h7.02v1.3h-5.48v4.12h4.64v1.3h-4.64v5.46h-1.54v-12.19Z"/>
    <path class="cls-8" d="m17.93,228.07v-11.37h1.52v11.48c0,.48.2.65.45.65.09,0,.17,0,.32-.04l.2,1.15c-.2.09-.5.15-.87.15-1.15,0-1.62-.72-1.62-2.03Z"/>
    <path class="cls-8" d="m21.98,225.41c0-2.94,2.01-4.74,4.09-4.74,2.32,0,3.59,1.67,3.59,4.24,0,.32-.02.61-.07.91h-6.04c.15,2.03,1.45,3.08,2.97,3.08.85,0,1.62-.26,2.25-.69l.56,1c-.8.54-1.76.93-2.99.93-2.43,0-4.35-1.75-4.35-4.74Zm1.6-.8h4.7c0-1.75-.8-2.69-2.19-2.69-1.11,0-2.27.76-2.51,2.69Z"/>
    <path class="cls-8" d="m33.45,225.21l-2.73-4.31h1.65l1.21,1.99c.28.48.58,1,.89,1.51h.07c.26-.5.54-1.02.82-1.51l1.1-1.99h1.6l-2.73,4.48,2.94,4.55h-1.65l-1.32-2.1c-.32-.54-.65-1.1-.98-1.62h-.07c-.32.52-.61,1.06-.91,1.62l-1.23,2.1h-1.6l2.95-4.72Z"/>
    <path class="cls-8" d="m39.79,218.03c0-.59.43-1,1.02-1s1.02.41,1.02,1-.43,1-1.02,1-1.02-.39-1.02-1Zm.26,2.86h1.52v9.03h-1.52v-9.03Z"/>
    <path class="cls-8" d="m46.03,228.99h-.06l-.13.93h-1.23v-13.23h1.52v3.6l-.04,1.64c.82-.72,1.82-1.26,2.82-1.26,2.34,0,3.58,1.8,3.58,4.59,0,3.08-1.84,4.89-3.9,4.89-.84,0-1.78-.43-2.58-1.15Zm4.9-3.71c0-1.99-.67-3.33-2.38-3.33-.76,0-1.56.43-2.41,1.23v4.74c.8.69,1.62.95,2.21.95,1.49,0,2.58-1.36,2.58-3.58Z"/>
    <path class="cls-8" d="m54.9,228.07v-11.37h1.52v11.48c0,.48.2.65.45.65.09,0,.17,0,.32-.04l.2,1.15c-.2.09-.5.15-.87.15-1.15,0-1.62-.72-1.62-2.03Z"/>
    <path class="cls-8" d="m58.95,225.41c0-2.94,2.01-4.74,4.09-4.74,2.32,0,3.59,1.67,3.59,4.24,0,.32-.02.61-.07.91h-6.04c.15,2.03,1.45,3.08,2.97,3.08.85,0,1.62-.26,2.25-.69l.56,1c-.8.54-1.76.93-2.99.93-2.43,0-4.35-1.75-4.35-4.74Zm1.6-.8h4.7c0-1.75-.8-2.69-2.19-2.69-1.11,0-2.27.76-2.51,2.69Z"/>
    <path class="cls-8" d="m0,243.34h7.02v1.3H1.54v3.83h4.63v1.32H1.54v4.42h5.67v1.32H0v-12.19Z"/>
    <path class="cls-8" d="m9.65,253.67v-11.37h1.52v11.48c0,.48.2.65.45.65.09,0,.17,0,.32-.04l.2,1.15c-.2.09-.5.15-.87.15-1.15,0-1.62-.72-1.62-2.03Z"/>
    <path class="cls-8" d="m13.7,251.01c0-2.94,2.01-4.74,4.09-4.74,2.32,0,3.58,1.67,3.58,4.24,0,.32-.02.61-.07.91h-6.04c.15,2.03,1.45,3.08,2.97,3.08.85,0,1.62-.26,2.25-.69l.56,1c-.8.54-1.77.93-2.99.93-2.43,0-4.35-1.75-4.35-4.74Zm1.6-.8h4.7c0-1.75-.8-2.69-2.19-2.69-1.11,0-2.27.76-2.51,2.69Z"/>
    <path class="cls-8" d="m22.94,251.03c0-3.03,2.03-4.76,4.35-4.76,1.19,0,2.02.45,2.64,1.06l-.76.93c-.46-.43-1.04-.72-1.82-.72-1.62,0-2.82,1.41-2.82,3.49s1.13,3.45,2.8,3.45c.82,0,1.56-.35,2.1-.85l.67.93c-.74.72-1.75,1.19-2.9,1.19-2.41,0-4.25-1.73-4.25-4.72Z"/>
    <path class="cls-8" d="m32.15,252.68v-4.94h-1.34v-1.15l1.41-.09.19-2.9h1.28v2.9h2.43v1.24h-2.43v4.98c0,1.1.35,1.73,1.39,1.73.32,0,.67-.06,1.02-.22l.32,1.08c-.48.24-1.08.39-1.69.39-1.93,0-2.58-1.21-2.58-3.01Z"/>
    <path class="cls-8" d="m38.18,246.5h1.26l.13,1.64h.06c.59-1.13,1.52-1.86,2.56-1.86.39,0,.67.06.97.19l-.33,1.3c-.28-.07-.46-.11-.83-.11-.76,0-1.67.56-2.29,2.08v5.8h-1.52v-9.03Z"/>
    <path class="cls-8" d="m43.77,251.03c0-3.03,1.97-4.76,4.18-4.76s4.18,1.73,4.18,4.76-1.97,4.72-4.18,4.72-4.18-1.73-4.18-4.72Zm6.78,0c0-2.08-1.04-3.49-2.6-3.49s-2.6,1.41-2.6,3.49,1.06,3.45,2.6,3.45,2.6-1.39,2.6-3.45Z"/>
    <path class="cls-8" d="m54.51,246.5h1.26l.13,1.3h.06c.85-.85,1.78-1.52,3.03-1.52,1.9,0,2.75,1.23,2.75,3.53v5.72h-1.52v-5.52c0-1.69-.52-2.41-1.71-2.41-.93,0-1.56.48-2.47,1.39v6.54h-1.52v-9.03Z"/>
    <path class="cls-8" d="m64.42,243.64c0-.59.43-1,1.02-1s1.02.41,1.02,1-.43,1-1.02,1-1.02-.39-1.02-1Zm.26,2.86h1.52v9.03h-1.52v-9.03Z"/>
    <path class="cls-8" d="m68.59,251.03c0-3.03,2.03-4.76,4.35-4.76,1.19,0,2.02.45,2.64,1.06l-.76.93c-.46-.43-1.04-.72-1.82-.72-1.62,0-2.82,1.41-2.82,3.49s1.13,3.45,2.8,3.45c.82,0,1.56-.35,2.1-.85l.67.93c-.74.72-1.75,1.19-2.9,1.19-2.41,0-4.25-1.73-4.25-4.72Z"/>
    <path class="cls-8" d="m76.72,254.45l.71-.89c.78.65,1.6,1,2.71,1,1.19,0,1.78-.63,1.78-1.41,0-.93-1.02-1.32-2.04-1.69-1.36-.48-2.66-1.13-2.66-2.62s1.15-2.56,3.12-2.56c1.11,0,2.1.43,2.8,1.02l-.71.87c-.63-.45-1.28-.71-2.1-.71-1.13,0-1.65.61-1.65,1.3,0,.82.8,1.15,1.91,1.54,1.41.5,2.79,1.11,2.79,2.75,0,1.47-1.17,2.69-3.31,2.69-1.32,0-2.53-.48-3.36-1.3Z"/>
  </g>
  <path class="cls-8" d="m393.19,204.49l-.56,1.8h3.55l-.56-1.8c-.43-1.31-.81-2.61-1.19-3.98h-.07c-.36,1.37-.74,2.66-1.17,3.98Zm-3.6,6.61l4-11.81h1.69l4,11.81h-1.6l-1.12-3.6h-4.3l-1.13,3.6h-1.53Zm11.21,3.69v-12.44h1.22l.13,1.01h.05c.79-.67,1.76-1.22,2.79-1.22,2.25,0,3.46,1.75,3.46,4.46,0,2.97-1.78,4.72-3.78,4.72-.81,0-1.62-.38-2.43-1.01l.04,1.53v2.95h-1.48Zm3.62-4.72c1.44,0,2.5-1.31,2.5-3.47,0-1.93-.65-3.22-2.3-3.22-.74,0-1.48.41-2.34,1.19v4.59c.79.67,1.57.92,2.14.92Zm6.37,4.72v-12.44h1.22l.13,1.01h.05c.79-.67,1.76-1.22,2.79-1.22,2.25,0,3.46,1.75,3.46,4.46,0,2.97-1.78,4.72-3.78,4.72-.81,0-1.62-.38-2.43-1.01l.04,1.53v2.95h-1.48Zm3.62-4.72c1.44,0,2.5-1.31,2.5-3.47,0-1.93-.65-3.22-2.3-3.22-.74,0-1.48.41-2.34,1.19v4.59c.79.67,1.57.92,2.14.92Zm7.93,1.19c-1.12,0-1.57-.7-1.57-1.96v-11.02h1.48v11.12c0,.47.2.63.43.63.09,0,.16,0,.31-.04l.2,1.12c-.2.09-.49.14-.85.14Zm3.02-.16v-8.75h1.48v8.75h-1.48Zm.74-10.55c-.58,0-.99-.38-.99-.97s.41-.97.99-.97.99.4.99.97-.41.97-.99.97Zm7,2.79c-1.08,0-2.2.74-2.43,2.61h4.55c0-1.69-.77-2.61-2.12-2.61Zm.23,7.97c-2.36,0-4.21-1.69-4.21-4.59s1.94-4.59,3.96-4.59c2.25,0,3.47,1.62,3.47,4.1,0,.31-.02.59-.07.88h-5.85c.14,1.96,1.4,2.99,2.88,2.99.83,0,1.57-.25,2.18-.67l.54.97c-.77.52-1.71.9-2.9.9Zm8.37,0c-2.2,0-3.62-1.66-3.62-4.57s1.8-4.61,3.8-4.61c1.01,0,1.67.38,2.45,1.01l-.07-1.49v-3.37h1.49v12.82h-1.22l-.13-1.03h-.05c-.68.67-1.62,1.24-2.65,1.24Zm.32-1.24c.81,0,1.51-.4,2.23-1.21v-4.57c-.74-.67-1.4-.92-2.12-.92-1.4,0-2.52,1.35-2.52,3.35s.88,3.35,2.41,3.35Zm-62.8,25.76v-11.81h3.37c2.65,0,4.43.88,4.43,3.47s-1.76,3.65-4.36,3.65h-1.94v4.68h-1.49Zm1.49-5.9h1.76c2.05,0,3.04-.76,3.04-2.43s-1.04-2.27-3.11-2.27h-1.69v4.7Zm8.56,5.9v-8.75h1.22l.13,1.58h.05c.58-1.1,1.48-1.8,2.48-1.8.38,0,.65.05.94.18l-.32,1.26c-.27-.07-.45-.11-.81-.11-.74,0-1.62.54-2.21,2.02v5.62h-1.48Zm9.47.22c-2.14,0-4.05-1.67-4.05-4.57s1.91-4.61,4.05-4.61,4.05,1.67,4.05,4.61-1.91,4.57-4.05,4.57Zm0-1.22c1.51,0,2.52-1.35,2.52-3.35s-1.01-3.38-2.52-3.38-2.52,1.37-2.52,3.38,1.03,3.35,2.52,3.35Zm10.22,1.22c-.81,0-1.73-.41-2.5-1.12h-.05l-.13.9h-1.19v-12.82h1.48v3.49l-.04,1.58c.79-.7,1.76-1.22,2.74-1.22,2.27,0,3.47,1.75,3.47,4.45,0,2.99-1.78,4.73-3.78,4.73Zm-.25-1.24c1.44,0,2.5-1.31,2.5-3.47,0-1.93-.65-3.22-2.3-3.22-.74,0-1.51.41-2.34,1.19v4.59c.77.67,1.57.92,2.14.92Zm8.1,1.24c-1.46,0-2.57-.9-2.57-2.48,0-1.96,1.66-2.88,5.4-3.29-.02-1.1-.4-2.16-1.82-2.16-1.01,0-1.93.47-2.61.9l-.58-1.01c.81-.54,2.03-1.13,3.44-1.13,2.12,0,3.04,1.42,3.04,3.6v5.36h-1.22l-.13-1.04h-.05c-.86.7-1.8,1.26-2.9,1.26Zm.41-1.22c.85,0,1.57-.38,2.41-1.13v-2.36c-2.95.34-3.94,1.01-3.94,2.14,0,.97.68,1.35,1.53,1.35Zm10.51,1.22c-.81,0-1.73-.41-2.5-1.12h-.05l-.13.9h-1.19v-12.82h1.48v3.49l-.04,1.58c.79-.7,1.76-1.22,2.74-1.22,2.27,0,3.47,1.75,3.47,4.45,0,2.99-1.78,4.73-3.78,4.73Zm-.25-1.24c1.44,0,2.5-1.31,2.5-3.47,0-1.93-.65-3.22-2.3-3.22-.74,0-1.51.41-2.34,1.19v4.59c.77.67,1.57.92,2.14.92Zm6.33,1.03v-8.75h1.48v8.75h-1.48Zm.74-10.55c-.58,0-.99-.38-.99-.97s.41-.97.99-.97.99.4.99.97-.41.97-.99.97Zm5.26,10.71c-1.12,0-1.57-.7-1.57-1.96v-11.02h1.48v11.12c0,.47.2.63.43.63.09,0,.16,0,.31-.04l.2,1.12c-.2.09-.49.14-.85.14Zm3.02-.16v-8.75h1.48v8.75h-1.48Zm.74-10.55c-.58,0-.99-.38-.99-.97s.41-.97.99-.97.99.4.99.97-.41.97-.99.97Zm6.45,10.71c-1.87,0-2.5-1.17-2.5-2.92v-4.79h-1.3v-1.12l1.37-.09.18-2.81h1.24v2.81h2.36v1.21h-2.36v4.82c0,1.06.34,1.67,1.35,1.67.31,0,.65-.05.99-.22l.31,1.04c-.47.23-1.04.38-1.64.38Zm3.47,3.6c-.4,0-.74-.07-1.03-.18l.32-1.15c.22.07.43.11.63.11.99,0,1.62-.79,1.98-1.87l.2-.65-3.51-8.77h1.53l1.78,4.84c.27.76.58,1.66.85,2.47h.07c.25-.79.5-1.69.74-2.47l1.57-4.84h1.44l-3.29,9.47c-.61,1.73-1.51,3.04-3.28,3.04Z"/>
  <g class="cls-1">
    <path class="cls-6" d="m176.7,364.03c-.8,9.44,5.62,59.43,8.93,79.04,1.57,9.29,5.9,24.41,4.35,32.45-2.22,11.2-2.86,25.69-1.64,34.12.77,5.12,3.2,28.75-.27,37.4-1.82,4.53-5.15,27.76-5.15,27.76-8.68,21.88-3.78,20.81-3.78,20.81,2.68,3.29,7.29.26,7.29.26,3.51,2.23,5.93-.53,5.93-.53,3.01,2.49,6.52-.31,6.52-.31,3.78,1.96,7.29-1.65,7.29-1.65,2.17,1.09,2.71-.29,2.71-.29,6.51-.41-3.64-21.24-3.64-21.24-2.43-18.7,2.41-29.11,2.41-29.11,15.87-46.98,16.67-59.44,10.33-77.14-1.78-5.11-2.24-7.13-1.42-9.36,1.9-5.12.52-25.72,2.83-33.9,4.47-15.77,8.88-55.78,11.18-74.44,3.09-25.14-10.94-58.86-10.94-58.86-3.07-13.72,1.43-62.6,1.43-62.6,6.29,9.78,6.05,27.03,6.05,27.03-1,18.09,14.64,45.75,14.64,45.75,7.52,11.43,10.36,22.27,10.36,23.08,0,3.29-.72,11.26-.72,11.26l.29,6.94c.13,1.77,1.12,7.85.97,10.8-1.17,18.11,1.7,14.7,1.7,14.7,2.43,0,5.1-14.57,5.1-14.57,0,3.76-.92,15,1.11,19.25,2.43,5.06,4.21-.87,4.24-2.05.64-23.05,2.03-17.01,2.03-17.01,1.35,18.7,3.01,22.92,5.98,21.46,2.26-1.08.19-22.44.19-22.44,3.86,12.69,6.79,14.71,6.79,14.71,6.37,4.46,2.43-7.87,1.55-10.32-4.71-12.98-4.86-17.48-4.86-17.48,5.89,11.66,10.33,11.23,10.33,11.23,5.74-1.83-5.02-18.34-11.33-26.26-3.22-4.03-7.37-9.43-8.57-12.64-1.96-5.43-3.45-22.88-3.45-22.88-.59-20.6-5.7-29.54-5.7-29.54-8.72-13.94-10.36-39.93-10.36-39.93l-.39-43.89c-3.06-29.94-25.15-30.15-25.15-30.15-22.33-3.32-25.44-10.52-25.44-10.52-4.73-6.8-2.02-19.82-2.02-19.82,3.93-3.18,5.44-11.65,5.44-11.65,6.51-4.99,6.2-12.29,3.19-12.21-2.41.06-1.87-1.93-1.87-1.93,4.07-32.87-25.15-34.55-25.15-34.55h-4.46s-29.23,1.68-25.16,34.53c0,0,.55,2-1.89,1.93-3-.08-3.28,7.22,3.21,12.21,0,0,1.51,8.46,5.44,11.65,0,0,2.71,13.03-2.02,19.82,0,0-3.09,7.21-25.44,10.52,0,0-22.13.22-25.14,30.15l-.42,43.89s-1.61,25.99-10.36,39.93c0,0-5.08,8.95-5.66,29.54,0,0-1.49,17.45-3.44,22.88-1.19,3.19-5.34,8.59-8.59,12.63-6.36,7.89-17.06,24.38-11.33,26.26,0,0,4.46.43,10.33-11.23,0,0-.12,4.46-4.82,17.48-.93,2.41-4.86,14.74,1.51,10.32,0,0,2.95-2.02,6.79-14.71,0,0-2.06,21.36.23,22.44,2.99,1.46,4.63-2.76,5.98-21.46,0,0,1.38-6.04,2.02,17.01.03,1.19,1.78,7.12,4.22,2.05,2.06-4.24,1.13-15.47,1.13-19.25,0,0,2.64,14.57,5.1,14.57,0,0,2.9,3.41,1.71-14.7-.19-2.96.85-9.03.97-10.8l.28-6.94s-.72-7.95-.72-11.26c0-.82,2.85-11.65,10.36-23.08,0,0,15.63-27.67,14.62-45.75,0,0-.22-17.25,6.07-27.03,0,0,4.46,48.87,1.44,62.6,0,0-14.05,33.71-10.96,58.86,2.28,18.72,6.69,58.67,11.17,74.44,2.34,8.17.95,28.75,2.83,33.9.85,2.23.4,4.29-1.42,9.35-6.31,17.7-5.51,30.17,10.36,77.14,0,0,4.89,10.41,2.41,29.11,0,0-10.13,20.82-3.65,21.23,0,0,.5,1.38,2.71.29,0,0,3.51,3.61,7.3,1.65,0,0,3.51,2.8,6.51.31,0,0,2.41,2.76,5.91.53,0,0,4.6,3.1,7.34-.26,0,0,4.86,1.08-3.79-20.81,0,0-3.31-23.2-5.14-27.76-3.48-8.64-1.02-32.32-.28-37.4,1.2-8.48.55-22.94-1.64-34.12-1.6-8.01,2.73-23.15,4.33-32.45,3.29-19.58,9.74-69.58,8.93-79.04l2.67.93c1.91,0,3.11-.93,3.11-.93h0Z"/>
  </g>
  <line class="cls-7" x1="173.81" y1="81.99" x2="173.81" y2="288.23"/>
  <line class="cls-7" x1="173.81" y1="81.99" x2="206.35" y2="183.3"/>
  <line class="cls-7" x1="173.81" y1="81.99" x2="419.61" y2="294.99"/>
  <circle class="cls-8" cx="418.72" cy="293" r="8.5"/>
  <path class="cls-8" d="m116.48,12.49V.68h3.51c2.39,0,4.05.81,4.05,2.88,0,1.22-.61,2.21-1.73,2.57v.07c1.48.27,2.41,1.19,2.41,2.77,0,2.36-1.84,3.51-4.48,3.51h-3.76Zm1.49-6.79h1.75c2.02,0,2.84-.74,2.84-1.94,0-1.37-.94-1.89-2.77-1.89h-1.82v3.83Zm0,5.6h2.05c2.03,0,3.22-.74,3.22-2.32,0-1.46-1.15-2.12-3.22-2.12h-2.05v4.45Zm8.94,1.19V3.74h1.22l.13,1.58h.05c.58-1.1,1.48-1.8,2.48-1.8.38,0,.65.05.94.18l-.32,1.26c-.27-.07-.45-.11-.81-.11-.74,0-1.62.54-2.21,2.02v5.62h-1.48Zm7.82.22c-1.46,0-2.57-.9-2.57-2.48,0-1.96,1.66-2.88,5.4-3.29-.02-1.1-.4-2.16-1.82-2.16-1.01,0-1.93.47-2.61.9l-.58-1.01c.81-.54,2.03-1.13,3.44-1.13,2.12,0,3.04,1.42,3.04,3.6v5.36h-1.22l-.13-1.04h-.05c-.86.7-1.8,1.26-2.9,1.26Zm.41-1.22c.85,0,1.57-.38,2.41-1.13v-2.36c-2.95.34-3.94,1.01-3.94,2.14,0,.97.68,1.35,1.53,1.35Zm6.64,1.01V3.74h1.48v8.75h-1.48Zm.74-10.55c-.58,0-.99-.38-.99-.97s.41-.97.99-.97.99.4.99.97-.41.97-.99.97Zm3.69,10.55V3.74h1.22l.13,1.26h.05c.83-.83,1.73-1.48,2.93-1.48,1.84,0,2.66,1.19,2.66,3.42v5.54h-1.48v-5.35c0-1.64-.5-2.34-1.66-2.34-.9,0-1.51.47-2.39,1.35v6.34h-1.48Zm13.59,0V.68h2.95c3.64,0,5.58,2.11,5.58,5.85s-1.94,5.96-5.51,5.96h-3.02Zm1.49-1.22h1.35c2.75,0,4.14-1.75,4.14-4.73s-1.39-4.63-4.14-4.63h-1.35v9.36Zm9.58,4.99c-.4,0-.74-.07-1.03-.18l.32-1.15c.22.07.43.11.63.11.99,0,1.62-.79,1.98-1.87l.2-.65-3.51-8.77h1.53l1.78,4.84c.27.76.58,1.66.85,2.47h.07c.25-.79.5-1.69.74-2.47l1.57-4.84h1.44l-3.29,9.47c-.61,1.73-1.51,3.04-3.28,3.04Zm8.26-3.76V3.74h1.22l.13,1.26h.05c.83-.83,1.73-1.48,2.93-1.48,1.84,0,2.66,1.19,2.66,3.42v5.54h-1.48v-5.35c0-1.64-.5-2.34-1.66-2.34-.9,0-1.51.47-2.39,1.35v6.34h-1.48Zm11.86.22c-1.46,0-2.57-.9-2.57-2.48,0-1.96,1.66-2.88,5.4-3.29-.02-1.1-.4-2.16-1.82-2.16-1.01,0-1.93.47-2.61.9l-.58-1.01c.81-.54,2.03-1.13,3.44-1.13,2.12,0,3.04,1.42,3.04,3.6v5.36h-1.22l-.13-1.04h-.05c-.86.7-1.8,1.26-2.9,1.26Zm.41-1.22c.85,0,1.57-.38,2.41-1.13v-2.36c-2.95.34-3.94,1.01-3.94,2.14,0,.97.68,1.35,1.53,1.35Zm6.64,1.01V3.74h1.22l.13,1.26h.05c.76-.83,1.67-1.48,2.72-1.48,1.33,0,2.05.63,2.41,1.67.92-.99,1.82-1.67,2.88-1.67,1.8,0,2.66,1.19,2.66,3.42v5.54h-1.48v-5.35c0-1.64-.52-2.34-1.62-2.34-.68,0-1.39.45-2.2,1.35v6.34h-1.48v-5.35c0-1.64-.52-2.34-1.64-2.34-.65,0-1.39.45-2.2,1.35v6.34h-1.48Zm14.92,0V3.74h1.48v8.75h-1.48Zm.74-10.55c-.58,0-.99-.38-.99-.97s.41-.97.99-.97.99.4.99.97-.41.97-.99.97Zm7.17,10.76c-2.34,0-4.12-1.67-4.12-4.57s1.96-4.61,4.21-4.61c1.15,0,1.96.43,2.56,1.03l-.74.9c-.45-.41-1.01-.7-1.76-.7-1.57,0-2.74,1.37-2.74,3.38s1.1,3.35,2.72,3.35c.79,0,1.51-.34,2.03-.83l.65.9c-.72.7-1.69,1.15-2.81,1.15Zm7.02,0c-1.28,0-2.45-.47-3.26-1.26l.68-.86c.76.63,1.55.97,2.63.97,1.15,0,1.73-.61,1.73-1.37,0-.9-.99-1.28-1.98-1.64-1.31-.47-2.57-1.1-2.57-2.54s1.12-2.48,3.02-2.48c1.08,0,2.03.41,2.72.99l-.68.85c-.61-.43-1.24-.68-2.03-.68-1.1,0-1.6.59-1.6,1.26,0,.79.77,1.12,1.85,1.49,1.37.49,2.7,1.08,2.7,2.66,0,1.42-1.13,2.61-3.2,2.61Z"/>
  <path class="cls-8" d="m490.72,398.56v-11.81h3.51c2.39,0,4.05.81,4.05,2.88,0,1.22-.61,2.21-1.73,2.57v.07c1.48.27,2.41,1.19,2.41,2.77,0,2.36-1.84,3.51-4.48,3.51h-3.76Zm1.49-6.79h1.75c2.02,0,2.84-.74,2.84-1.94,0-1.37-.94-1.89-2.77-1.89h-1.82v3.83Zm0,5.6h2.05c2.03,0,3.22-.74,3.22-2.32,0-1.46-1.15-2.12-3.22-2.12h-2.05v4.45Zm8.94,1.19v-8.75h1.22l.13,1.58h.05c.58-1.1,1.48-1.8,2.48-1.8.38,0,.65.05.94.18l-.32,1.26c-.27-.07-.45-.11-.81-.11-.74,0-1.62.54-2.21,2.02v5.62h-1.48Zm7.82.22c-1.46,0-2.57-.9-2.57-2.48,0-1.96,1.66-2.88,5.4-3.29-.02-1.1-.4-2.16-1.82-2.16-1.01,0-1.93.47-2.61.9l-.58-1.01c.81-.54,2.03-1.13,3.44-1.13,2.12,0,3.04,1.42,3.04,3.6v5.36h-1.22l-.13-1.04h-.05c-.86.7-1.8,1.26-2.9,1.26Zm.41-1.22c.85,0,1.57-.38,2.41-1.13v-2.36c-2.95.34-3.94,1.01-3.94,2.14,0,.97.68,1.35,1.53,1.35Zm6.64,1.01v-8.75h1.48v8.75h-1.48Zm.74-10.55c-.58,0-.99-.38-.99-.97s.41-.97.99-.97.99.4.99.97-.41.97-.99.97Zm3.69,10.55v-8.75h1.22l.13,1.26h.05c.83-.83,1.73-1.48,2.93-1.48,1.84,0,2.66,1.19,2.66,3.42v5.54h-1.48v-5.35c0-1.64-.5-2.34-1.66-2.34-.9,0-1.51.47-2.39,1.35v6.34h-1.48Zm13.59,0v-11.81h1.89l2.23,6.32c.27.81.52,1.57.79,2.45h.07c.25-.88.47-1.64.76-2.45l2.23-6.32h1.87v11.81h-1.4v-6.5c0-1.04.13-2.57.22-3.62h-.07l-.92,2.84-2.21,6.1h-1.1l-2.21-6.1-.92-2.84h-.07c.11,1.04.22,2.57.22,3.62v6.5h-1.37Zm14.95.22c-1.46,0-2.57-.9-2.57-2.48,0-1.96,1.66-2.88,5.4-3.29-.02-1.1-.4-2.16-1.82-2.16-1.01,0-1.93.47-2.61.9l-.58-1.01c.81-.54,2.03-1.13,3.44-1.13,2.12,0,3.04,1.42,3.04,3.6v5.36h-1.22l-.13-1.04h-.05c-.86.7-1.8,1.26-2.9,1.26Zm.41-1.22c.85,0,1.57-.38,2.41-1.13v-2.36c-2.95.34-3.94,1.01-3.94,2.14,0,.97.68,1.35,1.53,1.35Zm10.12,1.22c-2.34,0-4.12-1.67-4.12-4.57s1.96-4.61,4.21-4.61c1.15,0,1.96.43,2.56,1.03l-.74.9c-.45-.41-1.01-.7-1.76-.7-1.57,0-2.74,1.37-2.74,3.38s1.1,3.35,2.72,3.35c.79,0,1.51-.34,2.03-.83l.65.9c-.72.7-1.69,1.15-2.81,1.15Zm4.73-.22v-12.82h1.48v3.49l-.05,1.8c.83-.79,1.71-1.44,2.92-1.44,1.84,0,2.66,1.19,2.66,3.42v5.54h-1.48v-5.35c0-1.64-.5-2.34-1.66-2.34-.9,0-1.51.47-2.39,1.35v6.34h-1.48Zm9.79,0v-8.75h1.48v8.75h-1.48Zm.74-10.55c-.58,0-.99-.38-.99-.97s.41-.97.99-.97.99.4.99.97-.41.97-.99.97Zm3.69,10.55v-8.75h1.22l.13,1.26h.05c.83-.83,1.73-1.48,2.93-1.48,1.84,0,2.66,1.19,2.66,3.42v5.54h-1.48v-5.35c0-1.64-.5-2.34-1.66-2.34-.9,0-1.51.47-2.39,1.35v6.34h-1.48Zm13.16-7.76c-1.08,0-2.2.74-2.43,2.61h4.55c0-1.69-.77-2.61-2.12-2.61Zm.23,7.97c-2.36,0-4.21-1.69-4.21-4.59s1.94-4.59,3.96-4.59c2.25,0,3.47,1.62,3.47,4.1,0,.31-.02.59-.07.88h-5.85c.14,1.96,1.4,2.99,2.88,2.99.83,0,1.57-.25,2.18-.67l.54.97c-.77.52-1.71.9-2.9.9Zm-80.97,23.78v-11.81h1.49v11.81h-1.49Zm4.58,0v-8.75h1.22l.13,1.26h.05c.83-.83,1.73-1.48,2.93-1.48,1.84,0,2.66,1.19,2.66,3.42v5.54h-1.48v-5.35c0-1.64-.5-2.34-1.66-2.34-.9,0-1.51.47-2.39,1.35v6.34h-1.48Zm12.6.16c-1.87,0-2.5-1.17-2.5-2.92v-4.79h-1.3v-1.12l1.37-.09.18-2.81h1.24v2.81h2.36v1.21h-2.36v4.82c0,1.06.34,1.67,1.35,1.67.31,0,.65-.05.99-.22l.31,1.04c-.47.23-1.04.38-1.64.38Zm6.39-7.92c-1.08,0-2.2.74-2.43,2.61h4.55c0-1.69-.77-2.61-2.12-2.61Zm.23,7.97c-2.36,0-4.21-1.69-4.21-4.59s1.94-4.59,3.96-4.59c2.25,0,3.47,1.62,3.47,4.1,0,.31-.02.59-.07.88h-5.85c.14,1.96,1.4,2.99,2.88,2.99.83,0,1.57-.25,2.18-.67l.54.97c-.77.52-1.71.9-2.9.9Zm5.38-.22v-8.75h1.22l.13,1.58h.05c.58-1.1,1.48-1.8,2.48-1.8.38,0,.65.05.94.18l-.32,1.26c-.27-.07-.45-.11-.81-.11-.74,0-1.62.54-2.21,2.02v5.62h-1.48Zm6.49,0v-7.54h-1.3v-1.12l1.3-.09v-1.39c0-1.78.81-2.9,2.56-2.9.54,0,1.08.13,1.46.29l-.32,1.08c-.36-.11-.67-.16-.99-.16-.83,0-1.22.58-1.22,1.69v1.39h1.85v1.21h-1.85v7.54h-1.48Zm6.67.22c-1.46,0-2.57-.9-2.57-2.48,0-1.96,1.66-2.88,5.4-3.29-.02-1.1-.4-2.16-1.82-2.16-1.01,0-1.93.47-2.61.9l-.58-1.01c.81-.54,2.03-1.13,3.44-1.13,2.12,0,3.04,1.42,3.04,3.6v5.36h-1.22l-.13-1.04h-.05c-.86.7-1.8,1.26-2.9,1.26Zm.41-1.22c.85,0,1.57-.38,2.41-1.13v-2.36c-2.95.34-3.94,1.01-3.94,2.14,0,.97.68,1.35,1.53,1.35Zm10.11,1.22c-2.34,0-4.12-1.67-4.12-4.57s1.96-4.61,4.21-4.61c1.15,0,1.96.43,2.56,1.03l-.74.9c-.45-.41-1.01-.7-1.76-.7-1.57,0-2.74,1.37-2.74,3.38s1.1,3.35,2.72,3.35c.79,0,1.51-.34,2.03-.83l.65.9c-.72.7-1.69,1.15-2.81,1.15Zm7.66-7.97c-1.08,0-2.2.74-2.43,2.61h4.55c0-1.69-.77-2.61-2.12-2.61Zm.23,7.97c-2.36,0-4.21-1.69-4.21-4.59s1.94-4.59,3.96-4.59c2.25,0,3.47,1.62,3.47,4.1,0,.31-.02.59-.07.88h-5.85c.14,1.96,1.4,2.99,2.88,2.99.83,0,1.57-.25,2.18-.67l.54.97c-.77.52-1.71.9-2.9.9Z"/>
  <path class="cls-8" d="m188.43,44.49l2.48-8.3-8.43,2,5.95,6.3Zm-30.25,0c0-7.85,6.58-14.25,14.75-14.25v-1.5c-8.95,0-16.25,7.03-16.25,15.75h1.5Zm14.75-14.25c5.84,0,10.88,3.28,13.27,8.02l1.34-.68c-2.64-5.24-8.2-8.84-14.61-8.84v1.5Z"/>
  <g>
    <path class="cls-8" d="m373.91,316.89h3.95v1.08h-3.95v-1.08Z"/>
    <path class="cls-8" d="m379.95,313.39h1.17l.12.96h.05c.75-.64,1.68-1.17,2.66-1.17,2.14,0,3.29,1.66,3.29,4.26,0,2.83-1.7,4.5-3.6,4.5-.77,0-1.55-.36-2.32-.96l.03,1.46v2.81h-1.41v-11.86Zm5.84,4.05c0-1.84-.62-3.07-2.2-3.07-.7,0-1.41.39-2.23,1.13v4.38c.75.64,1.49.88,2.04.88,1.37,0,2.39-1.25,2.39-3.31Z"/>
    <path class="cls-8" d="m389.48,316.96c0-3.02.84-5.49,2.27-7.79l.88.41c-1.32,2.18-1.97,4.77-1.97,7.38s.65,5.2,1.97,7.38l-.88.41c-1.42-2.3-2.27-4.77-2.27-7.79Z"/>
    <path class="cls-8" d="m396.24,317.37l-2.52-3.98h1.53l1.12,1.84c.26.45.53.93.82,1.39h.07c.24-.46.5-.94.76-1.39l1.01-1.84h1.48l-2.52,4.14,2.71,4.2h-1.53l-1.22-1.94c-.29-.5-.6-1.01-.91-1.49h-.07c-.29.48-.57.98-.84,1.49l-1.13,1.94h-1.48l2.73-4.36Z"/>
    <path class="cls-8" d="m401.58,324.34c1.32-2.18,1.97-4.77,1.97-7.38s-.65-5.2-1.97-7.38l.87-.41c1.42,2.3,2.27,4.77,2.27,7.79s-.84,5.49-2.27,7.79l-.87-.41Z"/>
    <path class="cls-8" d="m410.98,320.02v-10.5h1.41v10.61c0,.45.19.6.41.6.09,0,.15,0,.29-.03l.19,1.06c-.19.09-.46.14-.81.14-1.06,0-1.49-.67-1.49-1.87Z"/>
    <path class="cls-8" d="m414.74,317.58c0-2.8,1.82-4.39,3.86-4.39s3.86,1.6,3.86,4.39-1.82,4.36-3.86,4.36-3.86-1.6-3.86-4.36Zm6.26,0c0-1.92-.96-3.23-2.4-3.23s-2.4,1.3-2.4,3.23.98,3.19,2.4,3.19,2.4-1.29,2.4-3.19Z"/>
    <path class="cls-8" d="m424.03,323.33c0-.7.46-1.37,1.22-1.89v-.07c-.41-.26-.74-.7-.74-1.36,0-.7.48-1.25.91-1.54v-.07c-.55-.45-1.08-1.25-1.08-2.25,0-1.82,1.44-2.97,3.14-2.97.46,0,.88.09,1.18.21h2.9v1.08h-1.73v.07c.39.36.7.91.7,1.66,0,1.77-1.36,2.88-3.05,2.88-.41,0-.87-.1-1.25-.29-.29.26-.53.53-.53.99,0,.53.34.91,1.48.91h1.61c1.94,0,2.92.6,2.92,1.99,0,1.54-1.63,2.88-4.22,2.88-2.04,0-3.45-.81-3.45-2.25Zm6.3-.43c0-.77-.6-1.03-1.68-1.03h-1.44c-.33,0-.72-.03-1.08-.14-.6.43-.86.93-.86,1.41,0,.89.91,1.46,2.42,1.46,1.6,0,2.64-.82,2.64-1.7Zm-1.08-6.74c0-1.22-.79-1.94-1.77-1.94s-1.77.72-1.77,1.94.81,1.99,1.77,1.99,1.77-.77,1.77-1.99Z"/>
    <path class="cls-8" d="m433.31,316.96c0-3.02.84-5.49,2.27-7.79l.88.41c-1.32,2.18-1.97,4.77-1.97,7.38s.65,5.2,1.97,7.38l-.88.41c-1.42-2.3-2.27-4.77-2.27-7.79Z"/>
    <path class="cls-8" d="m438.52,313.39h1.17l.12.96h.05c.75-.64,1.68-1.17,2.66-1.17,2.14,0,3.29,1.66,3.29,4.26,0,2.83-1.7,4.5-3.6,4.5-.77,0-1.55-.36-2.32-.96l.03,1.46v2.81h-1.41v-11.86Zm5.84,4.05c0-1.84-.62-3.07-2.2-3.07-.7,0-1.41.39-2.23,1.13v4.38c.76.64,1.49.88,2.04.88,1.37,0,2.39-1.25,2.39-3.31Z"/>
    <path class="cls-8" d="m448.05,316.96c0-3.02.84-5.49,2.27-7.79l.88.41c-1.32,2.18-1.97,4.77-1.97,7.38s.65,5.2,1.97,7.38l-.88.41c-1.42-2.3-2.27-4.77-2.27-7.79Z"/>
    <path class="cls-8" d="m454.81,317.37l-2.52-3.98h1.53l1.12,1.84c.26.45.53.93.82,1.39h.07c.24-.46.5-.94.76-1.39l1.01-1.84h1.48l-2.52,4.14,2.71,4.2h-1.53l-1.22-1.94c-.29-.5-.6-1.01-.91-1.49h-.07c-.29.48-.57.98-.84,1.49l-1.13,1.94h-1.48l2.73-4.36Z"/>
    <path class="cls-8" d="m460.15,324.34c1.32-2.18,1.97-4.77,1.97-7.38s-.65-5.2-1.97-7.38l.87-.41c1.42,2.3,2.27,4.77,2.27,7.79s-.84,5.49-2.27,7.79l-.87-.41Z"/>
    <path class="cls-8" d="m465.35,324.34c1.32-2.18,1.97-4.77,1.97-7.38s-.65-5.2-1.97-7.38l.87-.41c1.42,2.3,2.27,4.77,2.27,7.79s-.84,5.49-2.27,7.79l-.87-.41Z"/>
  </g>
  <circle class="cls-8" cx="542.91" cy="293" r="8.5"/>
  <g>
    <rect class="cls-6" x="331.11" y="245.95" width="177" height="99.61" rx="2.54" ry="2.54"/>
    <rect class="cls-5" x="333.78" y="248.72" width="171.66" height="92.53" rx="2.41" ry="2.41"/>
    <rect class="cls-5" x="408.45" y="345.55" width="22.35" height="23.95"/>
    <rect class="cls-5" x="391.6" y="369.5" width="56.01" height="3.58" rx=".8" ry=".8"/>
  </g>
  <g>
    <rect class="cls-6" x="518.17" y="245.95" width="49.47" height="127.13" rx="1.84" ry="1.84"/>
    <line class="cls-6" x1="518.17" y1="309.17" x2="567.64" y2="309.17"/>
    <circle class="cls-5" cx="542.91" cy="329.33" r="4.26"/>
    <line class="cls-5" x1="538.64" y1="349.49" x2="547.17" y2="349.49"/>
    <line class="cls-5" x1="538.64" y1="352.54" x2="547.17" y2="352.54"/>
    <line class="cls-5" x1="538.64" y1="355.59" x2="547.17" y2="355.59"/>
    <rect class="cls-5" x="522.25" y="252.84" width="41.32" height="8.53" rx="1.85" ry="1.85"/>
    <line class="cls-5" x1="524.66" y1="257.11" x2="561.16" y2="257.11"/>
  </g>
  <line class="cls-7" x1="418.72" y1="293" x2="542.91" y2="293"/>
  <line class="cls-7" x1="173.81" y1="81.99" x2="109.18" y2="240.56"/>
  <circle class="cls-8" cx="173.82" cy="285.99" r="8"/>
  <circle class="cls-8" cx="206.35" cy="183.3" r="8"/>
  <circle class="cls-8" cx="173.81" cy="81.99" r="8"/>
  <path class="cls-8" d="m190.14,207.06c-2.95,0-5.17-2.27-5.17-6.12s2.23-6.12,5.24-6.12c1.4,0,2.56.65,3.24,1.46l-.81.92c-.63-.67-1.44-1.06-2.41-1.06-2.21,0-3.71,1.84-3.71,4.77s1.44,4.84,3.73,4.84c1.1,0,1.94-.43,2.7-1.24l.77.86c-.95,1.08-2.05,1.69-3.58,1.69Zm7.67,0c-1.46,0-2.57-.9-2.57-2.48,0-1.96,1.66-2.88,5.4-3.29-.02-1.1-.4-2.16-1.82-2.16-1.01,0-1.93.47-2.61.9l-.58-1.01c.81-.54,2.03-1.13,3.44-1.13,2.12,0,3.04,1.42,3.04,3.6v5.36h-1.22l-.13-1.04h-.05c-.86.7-1.8,1.26-2.9,1.26Zm.41-1.22c.85,0,1.57-.38,2.41-1.13v-2.36c-2.95.34-3.94,1.01-3.94,2.14,0,.97.68,1.35,1.53,1.35Zm6.64,1.01v-8.75h1.22l.13,1.58h.05c.58-1.1,1.48-1.8,2.48-1.8.38,0,.65.05.94.18l-.32,1.26c-.27-.07-.45-.11-.81-.11-.74,0-1.62.54-2.21,2.02v5.62h-1.48Zm9.05.22c-2.2,0-3.62-1.66-3.62-4.57s1.8-4.61,3.8-4.61c1.01,0,1.67.38,2.45,1.01l-.07-1.49v-3.37h1.49v12.82h-1.22l-.13-1.03h-.05c-.68.67-1.62,1.24-2.65,1.24Zm.32-1.24c.81,0,1.51-.4,2.23-1.21v-4.57c-.74-.67-1.4-.92-2.12-.92-1.4,0-2.52,1.35-2.52,3.35s.88,3.35,2.41,3.35Zm6.67,1.03v-8.75h1.48v8.75h-1.48Zm.74-10.55c-.58,0-.99-.38-.99-.97s.41-.97.99-.97.99.4.99.97-.41.97-.99.97Zm7.09,10.76c-2.14,0-4.05-1.67-4.05-4.57s1.91-4.61,4.05-4.61,4.05,1.67,4.05,4.61-1.91,4.57-4.05,4.57Zm0-1.22c1.51,0,2.52-1.35,2.52-3.35s-1.01-3.38-2.52-3.38-2.52,1.37-2.52,3.38,1.03,3.35,2.52,3.35Z"/>
  <path class="cls-8" d="m165.97,311.31c-3.11,0-5.33-2.27-5.33-6.12s2.29-6.12,5.42-6.12c1.64,0,2.72.72,3.4,1.46l-.83.94c-.59-.63-1.35-1.08-2.54-1.08-2.38,0-3.91,1.84-3.91,4.77s1.4,4.84,3.92,4.84c.85,0,1.66-.27,2.12-.7v-3.08h-2.5v-1.24h3.87v4.97c-.76.79-2.05,1.37-3.64,1.37Zm8.88,0c-1.85,0-2.68-1.19-2.68-3.42v-5.54h1.49v5.35c0,1.64.49,2.34,1.64,2.34.9,0,1.53-.45,2.36-1.48v-6.21h1.48v8.75h-1.22l-.13-1.37h-.05c-.81.95-1.67,1.58-2.88,1.58Zm9.99-.05c-1.87,0-2.5-1.17-2.5-2.92v-4.79h-1.3v-1.12l1.37-.09.18-2.81h1.24v2.81h2.36v1.21h-2.36v4.82c0,1.06.34,1.67,1.35,1.67.31,0,.65-.05.99-.22l.31,1.04c-.47.23-1.04.38-1.64.38Z"/>
  <g>
    <circle class="cls-8" cx="109.18" cy="240.56" r="4.76"/>
    <line class="cls-3" x1="97.21" y1="237.43" x2="121.14" y2="243.7"/>
    <line class="cls-4" x1="103.45" y1="238.86" x2="104.87" y2="233.59"/>
    <circle class="cls-8" cx="104.88" cy="233.54" r="1.07"/>
    <line class="cls-4" x1="99.43" y1="238.33" x2="100.26" y2="235.26"/>
    <circle class="cls-8" cx="100.51" cy="234.3" r="1.07"/>
    <line class="cls-4" x1="115.29" y1="242.32" x2="113.87" y2="247.59"/>
    <circle class="cls-8" cx="113.86" cy="247.63" r="1.07"/>
    <line class="cls-4" x1="119.31" y1="242.85" x2="118.48" y2="245.92"/>
    <circle class="cls-8" cx="118.23" cy="246.88" r="1.07"/>
    <line class="cls-4" x1="101.59" y1="238.01" x2="100.76" y2="241.09"/>
    <circle class="cls-8" cx="100.51" cy="242.05" r="1.07"/>
    <line class="cls-4" x1="117.15" y1="242.93" x2="117.98" y2="239.86"/>
    <circle class="cls-8" cx="118.23" cy="238.9" r="1.07"/>
  </g>
</svg>