<?xml version="1.0" encoding="UTF-8"?>
<svg id="Ebene_1" data-name="Ebene 1" xmlns="http://www.w3.org/2000/svg" viewBox="0 0 181.79 150.61">
  <defs>
    <style>
      .cls-1, .cls-2 {
        stroke-miterlimit: 10;
      }

      .cls-1, .cls-2, .cls-3 {
        stroke: #8c1515;
      }

      .cls-1, .cls-3 {
        fill: none;
        stroke-width: 3px;
      }

      .cls-2, .cls-4 {
        fill: #8c1515;
      }

      .cls-4 {
        stroke-width: 0px;
      }

      .cls-3 {
        stroke-linecap: round;
        stroke-linejoin: round;
      }
    </style>
  </defs>
  <path class="cls-3" d="m75.83,33.49c-8.86,0-15.92,7.17-15.92,15.92,0,2.95.84,5.8,2.32,8.23-8.65,1.79-14.34,10.23-12.66,18.88,1.27,6.43,6.22,11.39,12.66,12.66m13.6-55.68c0-7.38,5.91-13.29,13.29-13.29s13.39,6.01,13.39,13.29v79.83c0,7.38-5.91,13.29-13.29,13.29s-13.29-5.91-13.29-13.29c-8.86,0-15.92-7.17-15.92-15.92,0-2.95.74-5.8,2.21-8.23m13.6-55.68l1.47,3.81m-15.07,51.88l2.86-2.31"/>
  <path class="cls-3" d="m134.53,33.49c8.86,0,15.92,7.17,15.92,15.92,0,2.95-.84,5.8-2.32,8.23,8.65,1.79,14.34,10.23,12.66,18.88-1.27,6.43-6.22,11.39-12.66,12.66m-13.6-55.68c0-7.38-5.91-13.29-13.29-13.29s-13.39,6.01-13.39,13.29v79.83c0,7.38,5.91,13.29,13.29,13.29s13.29-5.91,13.29-13.29c8.86,0,15.92-7.17,15.92-15.92,0-2.95-.74-5.8-2.21-8.23m-13.6-55.68l-1.47,3.81m15.07,51.88l-2.86-2.31"/>
  <path class="cls-4" d="m67.88,73.33c0-7.14,2.7-10.95,7.04-10.95s7.01,3.81,7.01,10.95-2.7,11.11-7.01,11.11-7.04-3.97-7.04-11.11Zm10.88,0c0-6.11-1.6-8.35-3.84-8.35s-3.87,2.24-3.87,8.35,1.6,8.48,3.87,8.48,3.84-2.37,3.84-8.48Z"/>
  <path class="cls-4" d="m85.88,81.34h4.84v-14.82h-3.91v-2.07c2-.37,3.44-.9,4.71-1.67h2.5v18.56h4.27v2.7h-12.42v-2.7Z"/>
  <path class="cls-4" d="m129.23,84.04l-1.72-1.58c-5.94-5.41-9.9-8.98-9.9-13.34,0-3.57,2.77-6.34,6.34-6.34,1.98,0,3.96.92,5.15,2.38,1.32-1.45,3.17-2.38,5.15-2.38,3.57,0,6.34,2.77,6.34,6.34,0,4.36-3.96,7.92-9.9,13.34l-1.45,1.58Z"/>
  <circle class="cls-2" cx="166.99" cy="14.8" r="14.3"/>
  <line class="cls-1" x1="31.39" y1="73.5" x2="48.99" y2="73.5"/>
  <circle class="cls-1" cx="15.8" cy="73.5" r="14.3"/>
  <line class="cls-1" x1="152.63" y1="123.75" x2="140.19" y2="111.3"/>
  <circle class="cls-1" cx="163.69" cy="134.81" r="14.3"/>
  <line class="cls-1" x1="156.83" y1="25.04" x2="144.39" y2="37.48"/>
</svg>