<?xml version="1.0" encoding="UTF-8"?>
<svg id="Ebene_1" data-name="Ebene 1" xmlns="http://www.w3.org/2000/svg" viewBox="0 0 181.79 150.61">
  <defs>
    <style>
      .cls-1, .cls-2 {
        stroke-miterlimit: 10;
      }

      .cls-1, .cls-2, .cls-3 {
        stroke: #8c1515;
      }

      .cls-1, .cls-3 {
        fill: none;
        stroke-width: 3px;
      }

      .cls-2 {
        fill: #8c1515;
      }

      .cls-3 {
        stroke-linecap: round;
        stroke-linejoin: round;
      }
    </style>
  </defs>
  <path class="cls-3" d="m75.83,33.49c-8.86,0-15.92,7.17-15.92,15.92,0,2.95.84,5.8,2.32,8.23-8.65,1.79-14.34,10.23-12.66,18.88,1.27,6.43,6.22,11.39,12.66,12.66m13.6-55.68c0-7.38,5.91-13.29,13.29-13.29s13.39,6.01,13.39,13.29v79.83c0,7.38-5.91,13.29-13.29,13.29s-13.29-5.91-13.29-13.29c-8.86,0-15.92-7.17-15.92-15.92,0-2.95.74-5.8,2.21-8.23m13.6-55.68l1.47,3.81m-15.07,51.88l2.86-2.31"/>
  <path class="cls-3" d="m134.53,33.49c8.86,0,15.92,7.17,15.92,15.92,0,2.95-.84,5.8-2.32,8.23,8.65,1.79,14.34,10.23,12.66,18.88-1.27,6.43-6.22,11.39-12.66,12.66m-13.6-55.68c0-7.38-5.91-13.29-13.29-13.29s-13.39,6.01-13.39,13.29v79.83c0,7.38,5.91,13.29,13.29,13.29s13.29-5.91,13.29-13.29c8.86,0,15.92-7.17,15.92-15.92,0-2.95-.74-5.8-2.21-8.23m-13.6-55.68l-1.47,3.81m15.07,51.88l-2.86-2.31"/>
  <circle class="cls-2" cx="166.99" cy="14.8" r="14.3"/>
  <line class="cls-1" x1="31.39" y1="73.5" x2="48.99" y2="73.5"/>
  <circle class="cls-1" cx="15.8" cy="73.5" r="14.3"/>
  <line class="cls-1" x1="152.63" y1="123.75" x2="140.19" y2="111.3"/>
  <circle class="cls-1" cx="163.69" cy="134.81" r="14.3"/>
  <line class="cls-1" x1="156.83" y1="25.04" x2="144.39" y2="37.48"/>
</svg>